<svg xmlns="http://www.w3.org/2000/svg" version="1.1" xmlns:xlink="http://www.w3.org/1999/xlink" xmlns:svgjs="http://svgjs.com/svgjs" width="1440" height="560" viewBox="0 0 1440 560">
    <g mask="url(&quot;#SvgjsMask1099&quot;)" fill="none">
        <rect width="1440" height="560" x="0" y="0" fill="#0e2a47"></rect>
        <path d="M0,410.624C98.25,435.846,200.543,496.611,294.352,458.021C389,419.086,440.495,313.062,473.041,216.031C503.737,124.516,485.467,27.713,470.681,-67.674C456.052,-162.05,458.693,-272.111,387.505,-335.775C316.845,-398.966,203.826,-357.823,113.629,-386.985C19.654,-417.369,-54.627,-536.597,-149.58,-509.422C-244.366,-482.295,-252.396,-348.206,-307.51,-266.459C-354.441,-196.85,-439.571,-147.99,-449.463,-64.623C-459.317,18.421,-401.946,92.257,-358.556,163.747C-319.538,228.033,-272.921,285.649,-210.983,328.295C-147.519,371.992,-74.633,391.465,0,410.624" fill="#0b2035" class="clear" style="--duration: 8.1s; --rotate: 14deg"></path>
        <path d="M1440 1223.8319999999999C1564.9 1219.676 1677.75 1161.05 1784.196 1095.579 1892.471 1028.983 2002.183 956.381 2059.391 842.866 2117.645 727.273 2125.45 592.122 2102.083 464.807 2079.265 340.485 2018.192 225.916 1929.608 135.752 1844.343 48.964999999999975 1734.282-14.759000000000015 1613.863-32.12300000000005 1501.323-48.351 1397.134 10.433999999999969 1288.276 43.275999999999954 1180.341 75.839 1043.997 68.27499999999998 978.0319999999999 159.702 911.895 251.36700000000002 979.149 379.55600000000004 964.756 491.67 950.6759999999999 601.349 874.565 700.307 894.673 809.042 917.039 929.988 982.865 1044.525 1080.761 1118.987 1182.099 1196.067 1312.749 1228.066 1440 1223.8319999999999" fill="#123559" class="clear" style="--duration: 8.1s; --rotate: 11deg"></path>
    </g>
    <defs>
        <mask id="SvgjsMask1099">
            <rect width="1440" height="560" fill="#ffffff"></rect>
        </mask>
    </defs>
    <style>
     .clear {
            animation: swell var(--duration) infinite;
            animation-timing-function: ease;
            animation-delay: var(--delayTime);
        }

        @keyframes swell {
            0%, 100% {
            transform: translate3d(7px,-10px,6px) rotate(0deg);
            
            }
            50% {
            transform: translate3d(0,5px,10px) rotateX(var(--rotate));
            }
        }
    </style>
</svg>