<svg xmlns="http://www.w3.org/2000/svg" version="1.1" xmlns:xlink="http://www.w3.org/1999/xlink" xmlns:svgjs="http://svgjs.com/svgjs" viewBox="0 0 1440 560">
    <g mask="url(&quot;#SvgjsMask1018&quot;)" fill="none">
        <rect width="1440" height="560" x="0" y="0" fill="#0e2a47"></rect>
        <circle r="8.785" cx="183.055" cy="419.95500000000004" filter="url(#SvgjsFilter1019)" fill="rgba(51, 121, 194, 0.58)" class="Down" style="--snow-duration: 2.9s; --rotateDeg: 0deg"></circle>
        <circle r="7.58" cx="1349.07" cy="548.83" filter="url(#SvgjsFilter1019)" fill="rgba(51, 121, 194, 0.58)" class="Down" style="--snow-duration: 2.16s; --rotateDeg: 0deg"></circle>
        <circle r="7.58" cx="700.07" cy="256.83" filter="url(#SvgjsFilter1019)" fill="rgba(51, 121, 194, 0.58)" class="Down" style="--snow-duration: 2.36s; --rotateDeg: 0deg"></circle>
        <circle r="7.05" cx="884.29" cy="97.32" filter="url(#SvgjsFilter1019)" fill="rgba(51, 121, 194, 0.58)" class="Down" style="--snow-duration: 1.2s; --rotateDeg: 0deg"></circle>
        <circle r="4.84" cx="721.75" cy="521.4" filter="url(#SvgjsFilter1019)" fill="rgba(51, 121, 194, 0.58)" class="Down" style="--snow-duration: 2.6s; --rotateDeg: 0deg"></circle>
        <circle r="9.03" cx="24.27" cy="106.48" filter="url(#SvgjsFilter1019)" fill="rgba(51, 121, 194, 0.58)" class="Down" style="--snow-duration: 3.35s; --rotateDeg: 0deg"></circle>
        <circle r="5.76" cx="852.24" cy="7.4399999999999995" filter="url(#SvgjsFilter1019)" fill="rgba(51, 121, 194, 0.58)" class="Down" style="--snow-duration: 2.21s; --rotateDeg: 0deg"></circle>
        <circle r="1.76" cx="500.24" cy="108.4399999999999995" filter="url(#SvgjsFilter1019)" fill="rgba(51, 121, 194, 0.58)" class="Down" style="--snow-duration: 2.21s; --rotateDeg: 0deg"></circle>
        <circle r="8.09" cx="1207.6699999999998" cy="228.02" filter="url(#SvgjsFilter1019)" fill="rgba(51, 121, 194, 0.58)" class="Down" style="--snow-duration: 2.59s; --rotateDeg: 0deg"></circle>
        <circle r="9.2" cx="832.1400000000001" cy="200.32999999999998" filter="url(#SvgjsFilter1019)" fill="rgba(51, 121, 194, 0.58)" class="Down" style="--snow-duration: 2.0s; --rotateDeg: 0deg"></circle>
        <circle r="7.92" cx="856.8399999999999" cy="131.42" filter="url(#SvgjsFilter1019)" fill="rgba(51, 121, 194, 0.58)" class="Down" style="--snow-duration: 1.65s; --rotateDeg: 0deg"></circle>
        <circle r="7.12" cx="406.97" cy="125.30000000000001" filter="url(#SvgjsFilter1019)" fill="rgba(51, 121, 194, 0.58)" class="Down" style="--snow-duration: 1.79s; --rotateDeg: 0deg"></circle>
        <circle r="5.61" cx="981.94" cy="348.13" filter="url(#SvgjsFilter1019)" fill="rgba(51, 121, 194, 0.58)" class="Down" style="--snow-duration: 2.3s; --rotateDeg: 0deg"></circle>
        <circle r="8.9" cx="635.03" cy="355.21" filter="url(#SvgjsFilter1019)" fill="rgba(51, 121, 194, 0.58)" class="Down" style="--snow-duration: 3.56s; --rotateDeg: 0deg"></circle>
        <circle r="8.72" cx="893.97" cy="151.45" filter="url(#SvgjsFilter1019)" fill="rgba(51, 121, 194, 0.58)" class="Down" style="--snow-duration: 1.69s; --rotateDeg: 0deg"></circle>
        <circle r="6.195" cx="619.485" cy="494.655" filter="url(#SvgjsFilter1019)" fill="rgba(51, 121, 194, 0.58)" class="Down" style="--snow-duration: 3.31s; --rotateDeg: 0deg"></circle>
        <circle r="7.6" cx="1406.9199999999998" cy="321.12" filter="url(#SvgjsFilter1019)" fill="rgba(51, 121, 194, 0.58)" class="Down" style="--snow-duration: 2.11s; --rotateDeg: 0deg"></circle>
        <circle r="8.29" cx="558.81" cy="342.48" filter="url(#SvgjsFilter1019)" fill="rgba(51, 121, 194, 0.58)" class="Down" style="--snow-duration: 1.67s; --rotateDeg: 0deg"></circle>
        <circle r="7.67" cx="1308.54" cy="523.3399999999999" filter="url(#SvgjsFilter1019)" fill="rgba(51, 121, 194, 0.58)" class="Down" style="--snow-duration: 1.54s; --rotateDeg: 0deg"></circle>
        <circle r="4.825" cx="649.3950000000001" cy="10.485" filter="url(#SvgjsFilter1019)" fill="rgba(51, 121, 194, 0.58)" class="Down" style="--snow-duration: 3.2s; --rotateDeg: 0deg"></circle>
        <circle r="2.825" cx="680.3950000000001" cy="100.485" filter="url(#SvgjsFilter1019)" fill="rgba(51, 121, 194, 0.58)" class="Down" style="--snow-duration: 2.2s; --rotateDeg: 0deg"></circle>
        <circle r="7.76" cx="886.66" cy="467.7" filter="url(#SvgjsFilter1019)" fill="rgba(51, 121, 194, 0.58)" class="Down" style="--snow-duration: 2.3s; --rotateDeg: 0deg"></circle>
        <circle r="8.045" cx="317.95500000000004" cy="356.625" filter="url(#SvgjsFilter1019)" fill="rgba(51, 121, 194, 0.58)" class="Down" style="--snow-duration: 1.6s; --rotateDeg: 0deg"></circle>
        <circle r="3.045" cx="152.9" cy="240.625" filter="url(#SvgjsFilter1019)" fill="rgba(51, 121, 194, 0.58)" class="Down" style="--snow-duration: 2.6s; --rotateDeg: 0deg"></circle>
        <circle r="5.035" cx="498.345" cy="468.33500000000004" filter="url(#SvgjsFilter1041)" fill="rgba(51, 121, 194, 0.58)" class="Down" style="--snow-duration: 3.1s; --rotateDeg: 0deg"></circle>
        <circle r="4.295" cx="1022.5849999999999" cy="548.0849999999999" filter="url(#SvgjsFilter1041)" fill="rgba(51, 121, 194, 0.58)" class="Down" style="--snow-duration: 3.2s; --rotateDeg: 0deg"></circle>
        <circle r="6.57" cx="873.4100000000001" cy="38.75" filter="url(#SvgjsFilter1041)" fill="rgba(51, 121, 194, 0.58)" class="Down" style="--snow-duration: 1.97s; --rotateDeg: 0deg"></circle>
        <circle r="6.08" cx="1080.29" cy="527.1700000000001" filter="url(#SvgjsFilter1041)" fill="rgba(51, 121, 194, 0.58)" class="Down" style="--snow-duration: .6s; --rotateDeg: 0deg"></circle>
        <circle r="5.63" cx="989.89" cy="249.29" filter="url(#SvgjsFilter1041)" fill="rgba(51, 121, 194, 0.58)" class="Down" style="--snow-duration: 4s; --rotateDeg: 0deg"></circle>
        <circle r="5.6" cx="548.07" cy="245.35" filter="url(#SvgjsFilter1041)" fill="rgba(51, 121, 194, 0.58)" class="Down" style="--snow-duration: 3.25s; --rotateDeg: 0deg"></circle>
        <circle r="3.92" cx="110.16" cy="184.95999999999998" filter="url(#SvgjsFilter1041)" fill="rgba(51, 121, 194, 0.58)" class="Down" style="--snow-duration: 2.69s; --rotateDeg: 0deg"></circle>
        <circle r="4.77" cx="881.8" cy="274.58" filter="url(#SvgjsFilter1041)" fill="rgba(51, 121, 194, 0.58)" class="Down" style="--snow-duration: 4.6s; --rotateDeg: 0deg"></circle>
        <circle r="5.25" cx="1062.93" cy="187.09" filter="url(#SvgjsFilter1041)" fill="rgba(51, 121, 194, 0.58)" class="Down" style="--snow-duration: 1.64s; --rotateDeg: 0deg"></circle>
        <circle r="3.73" cx="71.88000000000001" cy="129.13" filter="url(#SvgjsFilter1041)" fill="rgba(51, 121, 194, 0.58)" class="Down" style="--snow-duration: 3.6s; --rotateDeg: 0deg"></circle>
        <circle r="4.905" cx="617.505" cy="232.715" filter="url(#SvgjsFilter1041)" fill="rgba(51, 121, 194, 0.58)" class="Down" style="--snow-duration: 2.1s; --rotateDeg: 0deg"></circle>
        <circle r="4.695" cx="1291.165" cy="336.985" filter="url(#SvgjsFilter1041)" fill="rgba(51, 121, 194, 0.58)" class="Down" style="--snow-duration: 2.68s; --rotateDeg: 0deg"></circle>
        <circle r="8.24" cx="541.3" cy="88.38" filter="url(#SvgjsFilter1041)" fill="rgba(51, 121, 194, 0.58)" class="Down" style="--snow-duration: 3.4s; --rotateDeg: 0deg"></circle>
        <circle r="4.7" cx="1048.42" cy="45.64" filter="url(#SvgjsFilter1041)" fill="rgba(51, 121, 194, 0.58)" class="Down" style="--snow-duration: 2.46s; --rotateDeg: 0deg"></circle>
        <circle r="4.715" cx="1052.165" cy="41.075" filter="url(#SvgjsFilter1041)" fill="rgba(51, 121, 194, 0.58)" class="Down" style="--snow-duration: 1.6s; --rotateDeg: 0deg"></circle>
        <circle r="6.58" cx="1381.28" cy="496.41999999999996" filter="url(#SvgjsFilter1041)" fill="rgba(51, 121, 194, 0.58)" class="Down" style="--snow-duration: 4.1s; --rotateDeg: 0deg"></circle>
        <circle r="8.185" cx="1401.095" cy="447.985" filter="url(#SvgjsFilter1041)" fill="rgba(51, 121, 194, 0.58)" class="Down" style="--snow-duration: 3.21s; --rotateDeg: 0deg"></circle>
        <circle r="2.47" cx="96.11" cy="432.61" filter="url(#SvgjsFilter1041)" fill="rgba(51, 121, 194, 0.58)" class="Down" style="--snow-duration: 2.6s; --rotateDeg: 0deg"></circle>
        <circle r="6.18" cx="1433.3300000000002" cy="554.39" filter="url(#SvgjsFilter1041)" fill="rgba(51, 121, 194, 0.58)" class="Down" style="--snow-duration: 2.12s; --rotateDeg: 0deg"></circle>
        <circle r="9.02" cx="452.72999999999996" cy="342.5" filter="url(#SvgjsFilter1041)" fill="rgba(51, 121, 194, 0.58)" class="Down" style="--snow-duration: 1.9s; --rotateDeg: 0deg"></circle>
        <path d="M513.3 572.9L488 551.4 485.7 521.9 512.4 534.7 523.2 566.1C523.2 566.1 523.4 566.5 523.4 566.5 523.9 567.1 525 567.3 525.9 567.2 527.1 566.9 527.6 565.5 526.9 564.5L517.4 537.1 530.4 543.3 534.7 555.3C534.7 555.3 534.9 555.7 534.9 555.7 535.4 556.3 536.5 556.5 537.4 556.4 538.6 556.1 539.2 554.7 538.5 553.7L535.7 545.5 545.2 550.1C546 550.6 547.5 550 548 549.2 548.7 548.2 547.8 546.9 547 546.4L537.6 541.8 545.9 539C547.1 538.7 547.6 537.3 546.9 536.3 546.6 535.1 545.2 534.6 544.3 535.3L532.2 539.6 519.6 533.2 547 523.7C548.2 523.3 548.8 522 548.1 521 547.7 519.8 546.4 519.3 545.4 519.9L514 530.7 487.4 517.9 512.1 501 544.9 507.2C546 507.4 547 506.7 547.2 505.6 547.5 504.5 546.8 503.5 545.7 503.3L516.8 497.8 528.7 489.7 540.9 492C542 492.2 543 491.6 543.2 490.4 543.4 489.3 542.7 488.3 541.6 488.1L533.3 486.6 542.5 480.2C543.7 479.9 543.7 478.5 543 477.5 542.4 476.5 541.3 476.3 540.3 476.9L531.7 482.8 533.2 474.5C533.5 473.4 532.8 472.4 531.7 472.2S529.6 472.6 529.4 473.7L527.1 486 515.2 494.1 520.6 465.2C520.8 464.1 520.1 463.1 519 462.9 517.9 462.7 516.9 463.3 516.7 464.5L510.5 497.3 486.1 514 483.9 484.5 504.9 459.9C505.7 458.9 505.3 457.7 504.6 456.7 503.6 455.9 502.4 456.3 501.4 457L482.6 479 481.5 464.7 490 455.1C490.7 454.1 490.4 452.9 489.7 451.9 488.7 451.1 487.5 451.5 486.8 451.9L481.3 458.6 480.4 448.1C480.2 447.2 479.3 445.9 478.1 446.3 476.9 446.6 475.9 447.3 476.3 448.5L477.2 459 470.4 453.4C469.4 452.7 468.2 453 467.6 453.5 467.1 454.3 466.9 455.4 467.4 456 467.4 456 467.6 456.4 467.6 456.4L477.2 464.8 478.3 479.1 456.2 460.3C455.2 459.5 454 459.8 453.3 460.3 452.9 461.1 452.7 462.2 453.1 462.8 453.1 462.8 453.3 463.2 453.3 463.2L478.7 484.6 480.9 514.1 454.2 501.3 443.4 469.9C443.1 468.7 441.8 468.2 440.8 468.9 439.5 469.2 439 470.6 439.7 471.5L449.2 498.9 436.3 492.8 431.9 480.7C431.6 479.5 430.2 479 429.2 479.6 428 480 427.5 481.3 428.2 482.3L430.9 490.6 421.4 486C420.7 485.5 419.1 486.1 418.7 486.9 418.2 487.7 418.4 488.5 418.8 489.2 419 489.5 419.3 489.9 419.8 490L429.3 494.6 421 497.4C419.8 497.7 419.3 499.1 419.9 500.1 419.9 500.1 420.2 500.4 420.2 500.4 420.6 501 421.7 501.3 422.6 501.1L434.6 496.8 447.6 503 420.2 512.5C419 512.8 418.4 514.2 419.1 515.2 419.1 515.2 419.3 515.5 419.3 515.5 419.8 516.1 420.9 516.4 421.8 516.2L453.2 505.4 479.8 518.2 455.4 534.9 422.6 528.8C421.5 528.6 420.5 529.2 420.3 530.3 420.1 531.5 420.7 532.4 421.9 532.7L450.4 538.3 438.5 546.4 426.3 544.1C425.2 543.9 424.2 544.6 424 545.7S424.5 547.8 425.6 548L433.9 549.6 425.3 555.5C424.3 556.1 424.1 557.3 424.8 558.2 425.5 559.2 426.6 559.4 427.6 558.8L436.2 552.9 434.6 561.2C434.5 561.8 434.4 562.4 434.8 563S435.9 563.8 436.4 563.9C437.5 564.1 438.5 563.4 438.7 562.3L441 550.1 452.9 542 447.5 570.9C447.4 571.4 447.3 572 447.7 572.6 447.9 573 448.7 573.4 449.3 573.5 450.4 573.7 451.4 573 451.6 571.9L457.8 539.1 482.2 522.4 484.4 551.9 463 577.2C462.5 578 462.3 579.1 462.8 579.8 462.8 579.8 463 580.1 463 580.1 464 580.9 465.2 580.5 465.9 580.1L484.7 558 485.8 572.3 477.3 582C476.9 582.7 476.7 583.8 477.1 584.5 477.1 584.5 477.4 584.8 477.4 584.8 478.4 585.6 479.6 585.3 480.2 584.8L485.8 578.1 486.7 588.6C487 588.9 486.8 589.5 487.1 589.8 487.5 590.5 488.3 590.9 489.2 590.8 490.4 590.5 491.4 589.8 491.1 588.6L490.2 578 496.9 583.6C497.9 584.4 499.1 584 499.8 583.6 500.5 582.6 500.2 581.4 499.7 580.7L490.1 572.3 489 558 511.1 576.8C512.1 577.6 513.3 577.2 514 576.8 514.3 575.1 514.3 573.7 513.3 572.9Z" fill="rgba(51, 121, 194, 0.58)"
         class="Down" style="--snow-duration: 6.32s; --delayTime: 1.2s; --rotateDeg: 56deg"></path>
        <path d="M817.3 507.5L793 460.3 807.7 415.4 839.3 450.6 836.1 503.6C836.1 503.6 836.2 504.2 836.2 504.2 836.5 505.4 838 506.4 839.4 506.8 841.4 507 843 505.4 842.6 503.5L845.3 457.2 860.7 474.2 859.7 494.7C859.7 494.7 859.9 495.3 859.9 495.3 860.1 496.5 861.7 497.5 863 497.9 865.1 498.1 866.7 496.5 866.3 494.6L867.3 480.6 878.4 493.3C879.3 494.5 882 494.5 883.1 493.7 884.8 492.6 884.3 490.1 883.4 489L872.2 476.3 886.2 477.3C888.2 477.5 889.8 475.9 889.4 474 889.6 472 888 470.4 886.1 470.8L865.6 469.9 850.9 452.7 897.2 455.3C899.2 455.6 900.9 453.9 900.5 452.1 900.7 450 899 448.4 897.2 448.8L844.2 445.6 812.5 410.4 859.5 400.5 904.2 429.7C905.8 430.7 907.6 430.3 908.6 428.7 909.6 427.2 909.2 425.3 907.7 424.4L868.3 398.7 890.8 393.9 907.5 404.8C909 405.8 910.9 405.4 911.9 403.9 912.9 402.3 912.5 400.5 910.9 399.5L899.6 392.1 917.1 388.4C919.1 388.6 920 386.4 919.6 384.6 919.2 382.7 917.7 381.7 915.8 382.1L899.5 385.5 906.9 374.2C907.9 372.6 907.5 370.8 906 369.8S902.6 369.2 901.6 370.7L890.7 387.4 868.2 392.1 893.9 352.7C894.9 351.2 894.5 349.3 893 348.3 891.4 347.3 889.6 347.7 888.6 349.2L859.4 394 813.1 403.8 827.8 358.8 873.9 335.3C875.6 334.3 875.8 332.3 875.4 330.4 874.4 328.7 872.4 328.5 870.5 328.9L829.2 350 836.4 328.2 854.7 319.1C856.5 318.1 856.7 316.1 856.3 314.2 855.3 312.4 853.3 312.2 852 312.5L839.7 319 844.8 302.9C845.1 301.5 844.6 299 842.6 298.8 840.6 298.5 838.7 298.9 838.5 301L833.4 317.1 826.8 304.7C825.8 303 823.8 302.7 822.6 303 821.4 303.9 820.4 305.4 820.7 306.7 820.7 306.7 820.8 307.3 820.8 307.3L830 325.6 822.8 347.4 801.6 306.1C800.6 304.4 798.6 304.1 797.3 304.4 796.2 305.3 795.2 306.8 795.5 308.1 795.5 308.1 795.6 308.7 795.6 308.7L820 355.9 805.3 400.8 773.6 365.7 776.8 312.7C777.1 310.6 775.4 309 773.5 309.4 771.5 309.2 769.9 310.8 770.3 312.7L767.7 359.1 752.3 342 753.2 321.6C753.4 319.6 751.8 317.9 749.9 318.3 747.9 318.1 746.3 319.8 746.7 321.6L745.7 335.6 734.5 322.9C733.6 321.8 731 321.7 729.9 322.6 728.8 323.5 728.4 324.8 728.7 326.1 728.8 326.7 728.9 327.4 729.7 327.8L740.9 340.5 726.9 339.5C724.9 339.3 723.3 341 723.7 342.8 723.7 342.8 723.8 343.5 723.8 343.5 724.1 344.7 725.6 345.7 727 346.1L747.5 347 762.8 364 716.5 361.4C714.5 361.1 712.9 362.8 713.3 364.7 713.3 364.7 713.4 365.3 713.4 365.3 713.7 366.6 715.2 367.5 716.6 367.9L769.6 371.1 801.2 406.3 754.9 416.1 710.1 386.9C708.6 385.9 706.7 386.3 705.7 387.8 704.7 389.4 705.1 391.2 706.6 392.2L745.5 418.1 722.9 422.8 706.2 411.9C704.7 411 702.8 411.4 701.8 412.9S701.3 416.3 702.8 417.3L714.1 424.7 697.9 428.1C696 428.5 695 430 695.4 431.9 695.8 433.8 697.3 434.8 699.2 434.4L715.5 430.9 708.1 442.3C707.6 443.1 707.1 443.8 707.3 445.1S708.4 446.8 709.1 447.3C710.6 448.3 712.5 447.9 713.5 446.4L724.4 429.7 746.9 424.9 721.2 464.4C720.7 465.1 720.2 465.9 720.5 467.1 720.6 467.8 721.5 468.9 722.3 469.4 723.8 470.4 725.7 470 726.7 468.5L755.8 423.7 802.1 413.9 787.4 458.9 740.3 483.3C739.1 484.1 738.1 485.7 738.4 486.9 738.4 486.9 738.5 487.5 738.5 487.5 739.6 489.3 741.6 489.5 742.8 489.3L784.1 468.1 777 489.9 758.6 499C757.5 499.9 756.5 501.4 756.8 502.7 756.8 502.7 756.9 503.3 756.9 503.3 757.9 505 759.9 505.3 761.2 505L773.6 498.5 768.5 514.6C768.6 515.2 768.1 516 768.2 516.6 768.5 517.8 769.4 519 770.8 519.3 772.8 519.6 774.7 519.2 774.9 517.2L780 501 786.5 513.4C787.5 515.1 789.5 515.4 790.8 515.1 792.5 514.1 792.8 512.1 792.5 510.8L783.4 492.5 790.6 470.7 811.7 512C812.8 513.7 814.8 514 816 513.7 817.5 511.4 818.4 509.3 817.3 507.5Z" fill="rgba(51, 121, 194, 0.58)" 
        class="Down" style="--snow-duration: 8.96s; --delayTime: 2.18s; --rotateDeg: 64deg"></path>
        <path d="M62.9 95.5L74 94.4 71.5 100.6C71.2 101.3 71.5 102.2 72.4 102.8 73.3 102.9 74.2 102.6 74.3 101.7L77.8 94 86.4 92.7 79.3 108.8C79.1 109.7 79.4 110.7 80.1 111 81.2 111.4 82.1 111.1 82.3 110.2L90.1 92.4 103.4 90.9 95.7 104.1 110.6 100.6 105.4 112.9 86.1 115.3C85.9 115.1 85.6 115.3 85.4 115.4 84.9 115.8 84.6 116.5 84.7 117.2 84.8 117.9 85.6 118.5 86.5 118.6L104 116.3 100.3 124.3 92 125.3C91.5 125.3 91.2 125.4 91 125.6 90.7 125.8 90.4 126.5 90.5 127.2 90.7 127.9 91.5 128.5 92.2 128.3L98.9 127.7 94.7 138.1C94.1 138.9 94.7 139.7 95.5 140.2 96.1 140.6 97.1 140.2 97.5 139.2L101.9 129.1 105.9 134.4C106.5 135.2 107.7 135.2 108.2 134.8 109 134.2 109.1 133.3 108.5 132.5L103.3 125.6 107 117.7 117.3 131.5C117.9 132.3 118.8 132.4 119.6 131.9 120.1 131.5 120.5 130.4 119.9 129.6L108.4 114.2 113.6 102 121.4 115 125.7 100.5 133.8 111.3 126.2 128.9C125.8 130 126.4 130.8 127 131.1 127.6 131.4 128.6 131.1 129.2 130.3L135.9 114.1 141.1 121 137.8 129C137.3 129.9 137.6 130.8 138.7 131.2 139.3 131.5 140.3 131.2 140.6 130.1L143.3 124.1 150 133.1C150.6 133.9 151.5 134 152.3 133.4S153.2 131.9 152.6 131.2L145.9 122.2 152.4 121.3C153.6 121.3 154.2 120.4 154 119.7 154 118.6 153.2 118 152.2 118.3L143.6 119.1 138.5 112.2 155.9 110.4C156.8 110.1 157.4 109.2 157.3 108.5 157.2 107.4 156.4 106.8 155.4 107.1L136.3 109.4 128.3 98.6 143.4 98.5 133.1 87.4 146.4 85.9 157.9 101.3C158.4 102.1 159.6 102 160.1 101.6 160.9 101.1 161 100.2 160.4 99.4L149.9 85.3 158.7 84.3 163.9 91.2C164.5 92 165.4 92.1 166.2 91.5 166.7 91.1 167.1 90.1 166.5 89.3L162.5 83.9 173.4 82.5C174.6 82.5 175.1 81.6 174.8 80.7 174.7 80 174.1 79.2 173.2 79.5L162 80.6 164.5 74.4C164.9 73.7 164.5 72.8 163.9 72.5 163.3 72.1 162.6 72.3 162.3 72.4 162 72.6 161.8 72.8 161.7 73.3L158.3 81 149.7 82.3 156.8 66.2C156.9 65.3 156.6 64.3 156 64 155.3 63.7 154.6 63.8 154.1 64.2 153.9 64.4 153.9 64.4 153.8 64.8L146 82.6 132.7 84.1 140.4 70.9 125.4 74.4 130.6 62.1 150 59.7C150.7 59.6 151.5 59 151.4 57.8 151.3 57.1 150.4 56.5 149.5 56.4L132.1 58.7 135.7 50.7 144.1 49.7C145 49.8 145.6 49 145.5 47.8 145.4 47.1 144.6 46.5 143.7 46.4L137.1 47.3 141.4 36.9C142 36.1 141.4 35.3 140.6 34.8 140.1 34.7 139.4 34.8 139.2 35 138.9 35.2 138.7 35.4 138.6 35.8L134.1 45.9 130.1 40.6C129.6 39.8 128.4 39.8 127.9 40.2L127.9 40.2C127.1 40.8 127 41.7 127.6 42.5L132.7 49.4 129.1 57.3 118.7 43.5C118.2 42.7 117.3 42.6 116.5 43.1S115.6 44.6 116.2 45.4L127.6 60.8 122.4 73 114.7 60 110.3 74.5 102.3 63.7 109.9 46.1C110.3 45 109.7 44.2 109.1 43.9 108.4 43.6 107.5 43.9 106.9 44.7L100 60.6 95 54 98.2 46C98.8 45.1 98.5 44.2 97.4 43.8 96.8 43.5 95.8 43.8 95.2 44.6L92.7 50.9 86 41.9C85.5 41.1 84.6 41 83.8 41.6S82.9 43.1 83.5 43.8L90.2 52.8 83.6 53.7C83.2 53.6 82.9 53.8 82.7 54 82.2 54.4 82.1 54.8 82 55.3 82.1 56.4 82.9 57 83.9 56.7L92.5 55.9 97.6 62.8 80.2 64.6C80 64.8 79.7 65 79.4 65.2 78.9 65.6 78.9 66 78.8 66.5 78.9 67.6 79.7 68.2 80.6 67.9L99.7 65.6 107.8 76.4 92.7 76.5 102.9 87.6 89.7 89.1 78.2 73.7C77.6 72.9 76.5 73 76 73.4 75.2 73.9 75.1 74.8 75.6 75.6L86 89.5 77.3 90.7 72.2 83.8C71.6 83 70.7 82.9 69.9 83.5S69 84.9 69.6 85.7L73.6 91.1 62.7 92.5C62.2 92.4 62 92.6 61.7 92.8 61.4 93 61.1 93.6 61.2 94.3 61.4 95 61.9 95.8 62.9 95.5ZM99.8 79.6L112.1 79.5 115.7 67.7 122.1 78.5 133.9 75.6 128 86.4 136.3 95.4 124 95.5 120.4 107.3 114.2 96.8 102.1 99.4 108.2 88.8 99.8 79.6Z" fill="rgba(51, 121, 194, 0.58)"
        class="Down" style="--snow-duration: 7.44s; --delayTime: 0.64s; --rotateDeg: 39deg"></path>
        <path d="M335.8 433.8L297.2 467.2 278.6 465.4 291.7 454.2C293.4 453.4 293.1 451.4 292.3 449.6 291.2 448.8 288.9 448.4 288 449.6L269.7 464.7 251.4 463.5 262 448.5 285.5 444.4C285.5 444.4 286.1 444.1 286.1 444.1 287.3 443.5 287.9 441.8 287.9 440.4 287.1 438.7 285.9 437.8 283.9 438.1L267 441.2 277.5 426.2 327.5 416.5C327.5 416.5 328.4 416.8 328.4 416.8 329.5 416.2 330.1 414.5 330.2 413.1 329.9 411.1 327.9 409.9 326.2 410.7L282.5 418.8 294.9 400.2 314.4 396.5C314.4 396.5 314.4 396.5 315 396.2 316.2 395.7 317 394.5 317.1 393.1 316.2 391.4 314.8 389.9 312.8 390.2L299.9 392.8 309 379.2C310.4 377.8 309.6 376.1 308.5 375.2 307.1 373.8 305.1 374 303.9 376L294.5 389 292.7 376.4C291.9 374.6 290.5 373.2 288.8 374 286.8 374.3 285.9 375.4 286.1 377.4L289.8 396.9 277.2 415 268.8 370.8C268.8 369.4 266.8 368.2 264.8 368.4 263.7 369 262.2 370.4 262.5 372.4L272.2 422.4 261.6 437.4 258.5 420.4C258.2 418.4 256.5 417.8 254.5 418.1 253.1 418 251.9 420 251.9 421.5L256.6 444.7 246.3 460.3 238.3 443.6 246.1 421.4C246.7 419.7 245.9 417.9 244.2 417.3 243.1 416.4 240.8 417.5 240.2 419.3L234.4 435.5 226.4 418.7 243.9 370.7C244.5 369 243.6 367.2 241.9 366.6 240.2 366 238.5 366.8 237.9 368.5L222.6 410.6 213.2 391 219.8 372.2C220.4 370.5 219.6 368.8 217.9 368.2 216.2 367.6 214.4 368.4 213.8 370.1L209 382.4 202.1 367.9C201.3 366.2 199.6 365.6 197.9 366.4 196.1 367.3 195.5 369 196.4 370.7L203.3 385.1 191.3 380.9C189.6 380.3 187.9 381.1 187.3 382.8S187.5 386.3 189.2 386.9L207.1 393.2 216.8 413.4 175 398.7C173.3 398.1 171.5 398.9 170.9 400.6 170.3 402.3 171.2 404 172.9 404.6L220.7 421.5 228.7 438.2 212.5 432.5C210.7 431.9 209 432.7 208.4 434.4 207.8 436.2 208.6 437.9 210.3 438.5L232.5 446.3 240.3 462.5 222.6 461 206.8 443C205.7 442.1 203.4 441.8 202.5 442.9 201.1 444.3 201.1 445.8 201.9 447.5L213.1 460.6 195.4 459.1 162 420.5C160.6 419 159.2 419 157.4 419.8 156 421.2 156.2 423.2 156.8 424.4L186 458.7 163.7 456.6 151 442C150.2 440.3 148.2 440.6 146.5 441.4 145.6 442.5 145.3 444.8 146.7 446.3L154.8 455.8 138.8 455C137.1 454.4 135.6 455.8 135.3 458.1 135.3 459.5 136.7 461 138.1 461L154.4 462.4 144.2 470.8C142.8 472.2 143 474.2 144.2 475.1 145 476.9 146.4 476.9 147.6 476.3 148.2 476.1 148.2 476.1 148.7 475.8L163.3 463.2 185.6 465.3 151.8 494.2C150.1 495 150.4 497 151.2 498.7 152.3 499.6 153.8 499.6 154.9 499.1 155.5 498.8 155.5 498.8 155.5 498.8L195 465.7 212.7 467.2 199.6 478.4C198.2 479.8 198.2 481.2 199 483 200.1 483.8 201.8 484.4 203 483.9 203.6 483.6 203.6 483.6 204.1 483.3L222.2 467.6 239.9 469.1 229.9 483.8 206.6 488.5C204.6 488.8 203.4 490.8 203.4 492.2 204.2 493.9 205.6 495.4 207.4 494.5L224.3 491.4 214.6 506.7 163.8 516.1C162.3 516.1 161.2 518.1 161.1 519.5 162 521.2 163.4 522.7 165.4 522.4L209 514.3 196.4 532.4 177.5 535.8C175.4 536.1 174.3 538.1 175.1 539.8 175.1 541.2 176.5 542.7 178.5 542.4L191.4 539.8 182.3 553.4C181.4 554.5 181.7 556.5 183.1 558 183.9 558.3 185.4 558.3 186.5 557.7 186.5 557.7 187.1 557.5 187.7 557.2L196.8 543.6 199.4 556.5C199.4 558 201.4 559.1 202.8 559.2 203.4 558.9 203.4 558.9 203.4 558.9 205.1 558.1 205.7 556.3 205.2 555.2L201.8 536.2 214.1 517.6 222.5 561.8C223.3 563.5 224.5 564.4 226.5 564.2 226.5 564.2 227.1 563.9 227.1 563.9 228.2 563.3 229.1 562.2 228.8 560.2L219.7 509.9 229.7 495.2 232.8 512.2C233.7 513.9 235.1 515.4 236.8 514.5 237.1 515.1 237.6 514.8 237.6 514.8 238.8 514.3 239.4 512.6 239.4 511.1L234.7 487.9 245.2 472.9 253 489 245.2 511.2C244.6 512.9 245.7 515.2 247.4 515.9 248.8 515.9 250.5 515 251.4 513.9L256.9 497.1 264.9 513.9 248 561.7C247.4 563.4 248.2 565.1 249.9 565.7 251.6 566.3 253.4 565.5 254 563.8L268.7 521.9 278.4 542.2 272.1 560.1C271.5 561.8 272.3 563.5 274 564.1S277.4 563.9 278 562.2L282.3 550.2 289.2 564.7C290 566.4 291.7 567 293.4 566.2 295.2 565.3 295.8 563.6 294.9 561.9L288 547.5 300.6 551.4C301.4 551.7 302.3 552 302.8 551.7 303.4 551.5 304.3 550.3 304.6 549.5 305.2 547.8 304.4 546 302.7 545.4L284.2 539.4 274.5 519.2 316.9 533.7C317.8 534 318.6 534.3 319.2 534 319.8 533.7 320.6 532.6 320.9 531.7 321.5 530 320.7 528.3 319 527.7L270.6 511.1 262.6 494.4 279.1 500.7C280 501 281.1 500.4 281.7 500.1 282.3 499.9 282.9 499.6 283.2 498.7 283.8 497 282.7 494.7 281.2 494.7L258.8 486.3 251 470.1 269.3 471.3 284.5 489.6C285.6 490.5 287.3 491.1 288.5 490.5 289 490.2 289 490.2 288.8 489.7 290.5 488.8 290.8 486.5 289.4 485.1L278.2 472 296.5 473.2 329.6 512.7C330.7 513.6 332.1 513.6 333.3 513.1 333.9 512.8 333.9 512.8 333.9 512.8 335.3 511.4 335.9 509.7 334.5 508.2L305.3 473.9 327.6 476 340.3 490.6C341.7 492 343.1 492 344.3 491.5 344.3 491.5 344.8 491.2 344.8 491.2 346.3 489.8 346 487.8 345.5 486.6L336.5 476.8 352.8 478.2C353.4 477.9 353.9 477.6 354.5 477.4 355.1 477.1 356 475.9 356.3 475.1 356 473.1 355.2 471.4 353.2 471.6L336.9 470.2 347.1 461.8C348.5 460.4 348.3 458.3 347.7 457.2 346.3 455.7 344.3 456 342.6 456.8L328 469.4 306 467.9 339.7 439C341.2 437.6 341.5 435.3 340.4 434.5 339 433 337.3 432.4 335.8 433.8Z" fill="rgba(51, 121, 194, 0.58)" 
        class="Down" style="--snow-duration: 8.82s; --delayTime: 0.22s; --rotateDeg: 20deg"></path>
        <path d="M391.4 251.5L366.8 244.4 362.5 236.1 370.8 238.5C371.6 239 372.4 238.4 372.9 237.6 372.9 236.9 372.5 235.8 371.7 235.8L360.4 232.2 355.9 224.2 365.1 224.6 373.3 233.3C373.3 233.3 373.5 233.5 373.5 233.5 374.1 233.8 375 233.6 375.6 233.2 376.1 232.4 376.1 231.7 375.5 230.9L369.5 224.7 378.7 225 396.4 243.3C396.4 243.3 396.5 243.8 396.5 243.8 397 244.1 397.9 243.9 398.5 243.5 399.3 242.8 399.3 241.7 398.4 241.2L383.1 225.1 394.3 225.2 401.2 232.4C401.2 232.4 401.2 232.4 401.5 232.5 402 232.9 402.7 232.9 403.3 232.6 403.8 231.7 404.1 230.8 403.4 230L398.8 225.3 407 225.4C407.9 225.6 408.4 224.8 408.5 224.1 408.7 223.1 408.1 222.3 406.9 222.4L398.9 222 403.7 217.8C404.2 217 404.5 216 403.6 215.5 403 214.7 402.3 214.7 401.5 215.3L394.3 222.2 383.3 221.8 399.5 206.2C400.2 205.9 400.1 204.7 399.5 203.9 398.9 203.6 397.9 203.4 397.1 204L378.8 221.7 369.7 221.4 375.9 215.4C376.7 214.8 376.5 213.9 375.8 213.1 375.5 212.5 374.3 212.6 373.7 212.9L365.2 221.3 355.9 221.2 360.7 213.3 372.2 210.5C373.1 210.3 373.6 209.5 373.3 208.6 373.4 207.9 372.3 207.2 371.4 207.4L363.1 209.4 367.9 201.5 392.8 195.8C393.7 195.5 394.2 194.7 394 193.8 393.8 193 393 192.5 392.1 192.7L370.3 197.7 375.9 188.4 385.6 186.1C386.5 185.9 387 185.1 386.8 184.2 386.6 183.3 385.7 182.8 384.9 183L378.4 184.3 382.6 177.5C383.1 176.7 382.9 175.8 382.1 175.3 381.3 174.8 380.4 175 379.9 175.8L375.7 182.7 374.2 176.5C374 175.6 373.2 175.1 372.3 175.3S370.9 176.4 371.1 177.2L373.4 186.5 367.5 196 362.3 174.5C362.1 173.6 361.3 173.1 360.4 173.3 359.5 173.5 359 174.3 359.2 175.2L365.2 199.9 360.3 207.8 358.3 199.4C358.1 198.5 357.3 198 356.4 198.3 355.5 198.5 355 199.3 355.3 200.2L358 211.6 353.3 219.2 349.1 211.4 352.4 199.9C352.5 199.2 352 198.2 351.3 198.1 350.3 197.9 349.7 198.3 349.2 199.1L346.7 207.3 342.5 199.5 349.6 175C349.9 174 349.5 173.4 348.7 172.9 347.7 172.7 346.9 173.3 346.6 173.9L340.1 195.4 335 185.5 337.6 176.3C338.1 175.4 337.5 174.7 336.6 174.2 335.9 174.1 334.9 174.6 334.7 175.6L332.8 181.6 328.8 174.6C328.6 173.8 327.6 173.5 326.6 174 326 174.4 325.8 175.4 326.1 176L330 183.2 323.7 181.2C322.7 181 321.9 181.7 321.9 182.4 321.4 183.2 321.7 183.8 322.3 184.1 322.6 184.3 322.6 184.3 322.8 184.5L332.1 187.1 337.3 197.1 316 190.8C315.2 190.3 314.4 190.9 313.9 191.8 313.8 192.5 314.2 193.1 314.8 193.4 315 193.6 315 193.6 315 193.6L339.7 201.1 343.9 209 335.6 206.5C334.6 206.3 334 206.7 333.5 207.5 333.5 208.2 333.7 209.1 334.2 209.4 334.5 209.6 334.5 209.6 334.8 209.8L346.3 213 350.5 220.9 341.6 220.7 333.3 212.2C332.6 211.4 331.4 211.5 330.8 211.9 330.3 212.7 330.1 213.7 330.9 214.2L336.9 220.4 327.8 220.5 310 201.8C309.6 201.2 308.5 201.2 307.9 201.6 307.4 202.4 307.1 203.4 307.8 204.2L323.1 220.3 312.1 219.9 305.5 212.9C304.8 212.1 303.7 212.1 303.2 213 302.6 213.3 302.3 214.3 303 215.1L307.6 219.8 299.4 219.7C298.7 219.6 298 220.3 297.7 221.3 297.8 221.7 298.2 222.3 298.8 222.6 298.8 222.6 299 222.8 299.3 223L307.5 223.1 302.8 227.7C302.2 228.1 302.2 229.2 302.6 229.9 302.9 230 302.9 230 302.9 230 303.7 230.5 304.6 230.3 304.9 229.8L311.9 223.2 323.1 223.3 306.9 238.8C306.4 239.7 306.3 240.4 306.9 241.1 306.9 241.1 307.2 241.3 307.2 241.3 307.8 241.6 308.5 241.7 309.3 241.1L327.8 223.5 336.7 223.7 330.5 229.6C330 230.5 329.7 231.5 330.6 232 330.4 232.2 330.7 232.4 330.7 232.4 331.2 232.7 332.1 232.5 332.7 232.1L341.2 223.8 350.3 224.2 345.7 231.8 334.2 234.6C333.3 234.8 332.7 235.9 332.9 236.7 333.3 237.4 334.1 237.9 334.8 237.9L343.3 235.6 338.5 243.5 313.8 249.5C313 249.7 312.5 250.5 312.7 251.4 312.9 252.3 313.7 252.8 314.6 252.6L336.1 247.4 330.3 256.9 321.1 259.2C320.2 259.4 319.7 260.2 319.9 261.1S320.9 262.4 321.8 262.2L328 260.7 323.8 267.6C323.3 268.4 323.5 269.3 324.3 269.8 325.1 270.3 326 270.1 326.5 269.2L330.7 262.4 332.5 268.7C332.6 269.2 332.7 269.6 332.9 269.8 333.2 270 333.9 270 334.4 269.9 335.2 269.7 335.7 268.9 335.5 268L333 258.6 338.9 249 344.3 270.8C344.5 271.2 344.6 271.6 344.8 271.8 345.1 272 345.8 272 346.3 271.9 347.1 271.7 347.6 270.9 347.4 270L341.2 245.2 346.1 237.3 347.9 245.9C348 246.4 348.6 246.7 348.8 246.9 349.1 247 349.4 247.2 349.8 247.1 350.7 246.9 351.4 245.8 351 245.2L348.4 233.5 353.1 225.8 357.6 233.8 354 245.2C353.9 245.9 354.2 246.7 354.7 247.1 355 247.2 355 247.2 355.1 247 356 247.5 357 247 357.2 246L359.7 237.7 364.1 245.7 356.6 270.4C356.5 271.1 356.9 271.7 357.5 272 357.7 272.2 357.7 272.2 357.7 272.2 358.7 272.4 359.6 272.2 359.8 271.2L366.3 249.6 371.4 259.6 368.8 268.8C368.6 269.8 368.9 270.4 369.5 270.8 369.5 270.8 369.8 270.9 369.8 270.9 370.7 271.1 371.5 270.5 371.8 269.9L373.5 263.5 377.4 270.7C377.7 270.9 377.9 271 378.2 271.2 378.5 271.4 379.2 271.4 379.6 271.3 380.4 270.7 380.9 269.9 380.3 269.1L376.4 261.9 382.7 263.8C383.7 264.1 384.5 263.4 384.8 262.9 385 261.9 384.4 261.1 383.6 260.6L374.3 257.9 369 248.3 390.3 254.6C391.2 254.8 392.3 254.3 392.3 253.6 392.6 252.6 392.4 251.7 391.4 251.5Z" fill="rgba(51, 121, 194, 0.58)" 
        class="Down" style="--snow-duration: 8.12s; --delayTime: 3.12s; --rotateDeg: 68deg"></path>
        <path d="M911.9 74.9L916.9 107.8 899.2 131.5 887.5 104.3 899.9 73.5C899.9 73.5 900 73.2 900 73.2 900.1 72.4 899.4 71.5 898.6 71 897.5 70.4 896.2 71.1 896.1 72.3L885.3 99.2 879.5 86.1 884.2 74.1C884.2 74.1 884.2 73.7 884.2 73.7 884.3 72.9 883.6 72 882.9 71.5 881.7 71 880.4 71.7 880.3 72.9L876.9 80.9 872.8 71.2C872.5 70.3 871 69.8 870.1 70.1 868.9 70.3 868.7 71.9 869 72.7L873.1 82.5 865.1 79.1C863.9 78.6 862.6 79.2 862.5 80.4 861.9 81.6 862.6 82.9 863.8 83L875.7 87.6 881.1 100.7 854.1 89.9C853 89.4 851.7 90 851.6 91.2 851 92.4 851.7 93.7 852.9 93.8L883.6 106.3 895.3 133.4 865.5 129.9 844.9 103.7C844.2 102.9 843 102.7 842.1 103.4 841.2 104.1 841 105.3 841.7 106.2L860 129.3 845.7 127.6 838 117.8C837.3 117 836.1 116.8 835.2 117.5 834.3 118.2 834.2 119.4 834.9 120.3L840.1 127 829 125.7C827.9 125.1 826.9 126.2 826.8 127.4 826.6 128.6 827.3 129.5 828.5 129.6L838.9 130.8 832.2 136.1C831.3 136.8 831.2 138 831.9 138.9S833.8 139.9 834.7 139.2L844.4 131.5 858.7 133.2 835.6 151.4C834.8 152.1 834.6 153.3 835.3 154.2 836 155.1 837.2 155.2 838.1 154.5L864.3 133.8 893.7 137.3 876 161 844 165.7C842.8 165.9 842.3 167.1 842.1 168.3 842.4 169.5 843.5 170 844.7 170.2L873.4 165.9 864.8 177.4 852.1 179.1C850.9 179.4 850.4 180.5 850.2 181.7 850.5 182.9 851.6 183.5 852.4 183.6L861 182.2 854.8 190.7C854.3 191.4 854.1 193 855.3 193.6 856.4 194.1 857.6 194.2 858.2 193.1L864.4 184.6 865.8 193.2C866 194.4 867.2 195 868 195.1 868.8 194.8 869.7 194.1 869.8 193.3 869.8 193.3 869.9 192.9 869.9 192.9L868.1 180.2 876.7 168.7 881 197.4C881.3 198.6 882.4 199.2 883.2 199.3 884 199 884.9 198.2 885 197.5 885 197.5 885.1 197.1 885.1 197.1L880.1 164.3 897.7 140.5 909.5 167.7 897 198.5C896.5 199.6 897.1 200.9 898.3 201 899.4 201.6 900.7 200.9 900.9 199.7L911.7 172.8 917.4 185.9 912.8 197.9C912.2 199 912.9 200.3 914.1 200.5 915.2 201 916.5 200.3 916.6 199.1L920 191.1 924.1 200.8C924.4 201.7 925.9 202.2 926.8 201.9 927.6 201.6 928.1 200.9 928.2 200.1 928.3 199.7 928.3 199.3 928 198.9L923.9 189.1 931.9 192.5C933.1 193 934.4 192.4 934.5 191.2 934.5 191.2 934.5 190.8 934.5 190.8 934.6 190 933.9 189.1 933.2 188.6L921.2 184 915.5 170.8 942.5 181.6C943.6 182.2 944.9 181.5 945 180.3 945 180.3 945.1 179.9 945.1 179.9 945.2 179.1 944.5 178.2 943.7 177.7L913 165.3 901.2 138.1 930.6 141.6 951.3 167.8C952 168.7 953.2 168.8 954.1 168.1 955 167.4 955.1 166.2 954.4 165.3L936.6 142.3 950.9 144 958.6 153.7C959.3 154.6 960.5 154.7 961.4 154S962.4 152.2 961.7 151.3L956.5 144.6 966.8 145.8C968 146 968.9 145.3 969 144.1 969.1 142.9 968.4 142 967.3 141.8L956.9 140.6 963.6 135.4C964 135 964.5 134.7 964.6 133.9S964.3 132.6 964 132.2C963.3 131.3 962.1 131.2 961.2 131.9L951.4 139.6 937.1 137.9 960.2 119.7C960.6 119.3 961.1 119 961.2 118.2 961.2 117.8 960.9 116.9 960.6 116.5 959.9 115.6 958.7 115.5 957.8 116.2L931.6 136.9 902.2 133.4 919.9 109.7 952.7 104.7C953.5 104.4 954.4 103.7 954.5 102.9 954.5 102.9 954.5 102.5 954.5 102.5 954.3 101.3 953.1 100.7 952.3 100.6L923.7 104.9 932.2 93.4 944.9 91.7C945.8 91.4 946.7 90.7 946.8 89.9 946.8 89.9 946.8 89.5 946.8 89.5 946.5 88.3 945.4 87.7 944.6 87.6L936 89 942.2 80.5C942.3 80.1 942.7 79.8 942.8 79.4 942.8 78.6 942.5 77.7 941.8 77.2 940.7 76.7 939.5 76.6 938.9 77.7L932.7 86.2 931.3 77.6C931 76.4 929.9 75.8 929.1 75.8 927.8 76 927.3 77.2 927.2 78L928.9 90.6 920.4 102.1 916.1 73.4C915.8 72.2 914.7 71.6 913.9 71.6 912.5 72.6 911.6 73.7 911.9 74.9Z" fill="rgba(51, 121, 194, 0.58)" 
        class="Down" style="--snow-duration: 9.02s; --delayTime: 0.82s; --rotateDeg: 45deg"></path>
        <path d="M1302.5 485.3L1342.4 450.3 1389.6 453.8 1363.1 493 1310.9 502.6C1310.9 502.6 1310.3 502.9 1310.3 502.9 1309.1 503.4 1308.5 505.2 1308.5 506.6 1308.8 508.6 1310.8 509.8 1312.5 508.9L1358.1 500.3 1345.3 519.4 1325.2 523.4C1325.2 523.4 1324.6 523.7 1324.6 523.7 1323.5 524.2 1322.9 525.9 1322.9 527.4 1323.1 529.4 1325.1 530.5 1326.8 529.7L1340.6 527.3 1331 541.2C1330.1 542.3 1330.7 544.9 1331.8 545.8 1333.2 547.3 1335.5 546.1 1336.4 545L1346 531.1 1348.4 544.9C1348.7 546.9 1350.7 548 1352.4 547.2 1354.4 546.9 1355.6 545 1354.7 543.2L1350.7 523.1 1363.8 504.7 1372.4 550.3C1372.6 552.3 1374.6 553.5 1376.4 552.7 1378.4 552.4 1379.5 550.4 1378.7 548.7L1369.1 496.5 1395.6 457.3 1416.5 500.5 1399 550.9C1398.4 552.7 1399.2 554.4 1400.9 555 1402.7 555.6 1404.4 554.7 1405 553L1420.4 508.6 1430.5 529.3 1423.9 548.1C1423.3 549.8 1424.2 551.6 1425.9 552.1 1427.6 552.7 1429.3 551.9 1429.9 550.2L1434.4 537.4 1442.2 553.5C1442.4 555.5 1444.7 555.8 1446.5 555 1448.2 554.1 1448.8 552.4 1447.9 550.7L1440.7 535.7 1453.5 540.2C1455.2 540.8 1457 539.9 1457.5 538.2S1457.3 534.8 1455.6 534.2L1436.8 527.7 1426.7 506.9 1471.2 522.4C1472.9 523 1474.6 522.1 1475.2 520.4 1475.8 518.7 1475 517 1473.3 516.4L1422.8 498.9 1402.2 456.2 1449.4 459.7 1483.2 498.8C1484.6 500.2 1486.7 500 1488.4 499.1 1489.8 497.7 1489.6 495.7 1488.7 494L1458.3 459 1481.1 460.7 1494.4 476.3C1495.8 477.8 1497.8 477.5 1499.5 476.7 1501 475.2 1500.7 473.2 1500.2 472.1L1490.9 461.7 1507.7 462.7C1509.2 462.8 1511.5 461.6 1511.2 459.6 1510.9 457.6 1510.1 455.9 1508.1 456.2L1491.2 455.1 1501.7 445.8C1503.1 444.4 1502.8 442.3 1502.3 441.2 1501.1 440.3 1499.4 439.7 1498.3 440.3 1498.3 440.3 1497.7 440.6 1497.7 440.6L1482.1 453.8 1459.2 452.1 1494.2 421.6C1495.7 420.2 1495.4 418.2 1494.9 417.1 1493.7 416.2 1492 415.6 1490.9 416.1 1490.9 416.1 1490.3 416.4 1490.3 416.4L1450.3 451.4 1403.2 448 1429.7 408.8 1481.9 399.1C1483.9 398.9 1485.1 396.9 1484.3 395.2 1484 393.2 1482 392 1480.3 392.8L1434.7 401.4 1447.5 382.4 1467.6 378.4C1469.6 378.1 1470.8 376.1 1469.9 374.4 1469.7 372.4 1467.7 371.2 1465.9 372L1452.2 374.4 1461.8 360.5C1462.7 359.4 1462.1 356.8 1461 355.9 1459.9 355.1 1458.4 355.1 1457.3 355.6 1456.7 355.9 1456.1 356.2 1455.8 357L1446.2 370.9 1443.8 357.2C1443.5 355.2 1441.6 354 1439.8 354.8 1439.8 354.8 1439.3 355.1 1439.3 355.1 1438.1 355.7 1437.5 357.4 1437.5 358.8L1441.5 378.9 1428.7 397.9 1420.1 352.3C1419.9 350.3 1417.9 349.1 1416.1 349.9 1416.1 349.9 1415.6 350.2 1415.6 350.2 1414.4 350.8 1413.8 352.5 1413.8 353.9L1423.4 406.1 1396.9 445.3 1376.3 402.7 1393.8 352.2C1394.4 350.5 1393.5 348.8 1391.8 348.2 1390.1 347.6 1388.4 348.4 1387.8 350.2L1372.1 394 1362 373.3 1368.6 354.5C1369.2 352.8 1368.3 351.1 1366.6 350.5S1363.2 350.7 1362.6 352.4L1358.1 365.2 1350.9 350.3C1350 348.5 1348.3 347.9 1346.6 348.8 1344.9 349.6 1344.3 351.3 1345.1 353L1352.4 368 1339.5 363.6C1338.7 363.3 1337.8 363 1336.7 363.5S1335.2 364.9 1334.9 365.8C1334.3 367.5 1335.2 369.2 1336.9 369.8L1355.7 376.4 1365.7 397.1 1321.3 381.7C1320.4 381.4 1319.6 381.1 1318.4 381.6 1317.8 381.9 1317 383 1316.7 383.9 1316.1 385.6 1316.9 387.3 1318.6 387.9L1369.1 405.4 1389.7 448.1 1342.5 444.6 1307.5 404.7C1306.4 403.8 1304.7 403.2 1303.5 403.8 1303.5 403.8 1303 404 1303 404 1301.5 405.5 1301.8 407.5 1302.3 408.6L1332.8 443.6 1309.9 441.9 1296.7 426.3C1295.5 425.4 1293.8 424.8 1292.7 425.4 1292.7 425.4 1292.1 425.7 1292.1 425.7 1290.6 427.1 1290.9 429.1 1291.5 430.2L1300.8 440.6 1283.9 439.6C1283.3 439.9 1282.5 439.6 1281.9 439.8 1280.7 440.4 1279.9 441.5 1279.9 443 1280.1 445 1281 446.7 1283 446.4L1299.8 447.5 1289.4 456.8C1288 458.2 1288.2 460.2 1288.8 461.4 1290.2 462.8 1292.2 462.6 1293.4 462L1309 448.8 1331.9 450.5 1296.8 481C1295.4 482.4 1295.6 484.4 1296.2 485.5 1298.8 486.4 1301.1 486.7 1302.5 485.3Z" fill="rgba(51, 121, 194, 0.58)" 
        class="Down" style="--snow-duration: 8.99s; --delayTime: 5.18s; --rotateDeg: 68deg"></path>
        <path d="M1207.5 326.8L1190.1 329.4 1194.1 318.3C1194.6 317.1 1194 315.5 1192.5 314.5 1190.9 314.4 1189.2 315 1188.7 316.1L1183.2 330.7 1167.1 333 1178.5 303.5C1179.1 301.6 1178.4 300 1176.9 299.8 1175.4 298.8 1173.7 299.5 1173.1 301.4L1160.6 334 1146 336.4 1124.5 310 1128.9 297.7 1165.7 292.3C1166.1 291.9 1166.6 291.6 1167 291.2 1167.4 290.9 1167.9 289.7 1168 288.9 1167.8 286.9 1166.3 286 1164.7 286.6L1131.1 291.5 1137 276.6 1154.1 273.6C1154.4 274 1154.9 273.7 1155.3 273.3 1156.2 272.6 1156.7 271.5 1156.4 270.2 1156.1 269 1154.6 268.1 1153.1 267.9L1139.3 270.5 1146.4 251.7C1146.9 250.5 1146.3 248.9 1144.8 247.9 1143.2 247.8 1141.5 248.4 1141 249.6L1134.4 267.2 1127 258.1C1125.9 256.8 1123.9 257 1123.1 257.7 1121.8 258.7 1121.2 260.7 1122.2 262L1131.8 273.7 1125.9 288.6 1106.1 264.3C1105 263 1103.4 262.8 1102.1 263.9 1100.8 264.9 1100.7 266.5 1101.7 267.8L1123.6 294.7 1119.1 307.8 1085.1 313.1 1077 303.1 1089.6 269.8C1090.5 268.3 1089.6 266.2 1088 266 1086.5 265.1 1085.2 266.1 1084.2 267.6L1072.8 297.9 1062.5 285.3 1068.4 270.4C1068.9 269.2 1068 267.1 1066.8 266.6S1063.6 267.1 1062.6 268.6L1058.3 280.1 1045.9 264.9C1044.8 263.6 1042.8 263.8 1041.5 264.8 1040.7 265.5 1040.1 267.5 1041.1 268.8L1053.5 284 1040.9 286.3C1039.7 286.5 1038.4 287.6 1038.6 289.6 1038.9 290.8 1040.7 292.2 1041.9 291.9L1057.7 289.2 1068 301.8 1036 306.9C1034.4 307.5 1033.1 308.5 1033.3 310.6 1033.5 311.8 1035.4 313.2 1036.6 312.9L1072.2 307 1080.4 317 1068.3 349.2 1054.6 351 1032.7 324C1031.6 322.7 1030 322.6 1028.7 323.6 1027.4 324.7 1026.8 326.6 1027.9 327.9L1047.7 352.2 1031.9 355 1022.3 343.3C1021.3 342 1019.7 341.8 1018.4 342.9 1017.1 343.9 1016.9 345.5 1018 346.8L1025.4 355.9 1006.8 358.8C1005.6 359.1 1004.2 360.9 1004.5 362.1 1005.1 363.8 1006.2 365.1 1007.8 364.5L1027.2 361.7 1022.3 374.3C1022.2 375.9 1022.8 377.6 1023.9 378.1 1025.1 378.6 1026.3 378.3 1027.2 377.6 1027.2 377.6 1027.6 377.3 1027.7 376.5L1034.1 360.4 1049.9 357.6 1038.3 389.5C1037.4 391 1038 392.6 1039.9 393.2 1040.7 393.3 1041.5 393.4 1042.4 392.7 1042.8 392.3 1043.2 392 1043.7 391.6L1056.4 356.7 1069.3 354.9 1090.9 381.3 1085.5 395.1 1051.1 400.8C1049.1 400.9 1048.1 402.4 1048.7 404.1 1048.6 405.7 1050.1 406.6 1052.1 406.4L1083.3 401.3 1077.7 416.6 1062.3 419C1061.1 419.3 1060.2 420.8 1060 422.4 1060.6 424 1061.7 425.3 1063.4 424.7L1075.1 423.1 1069 439.6C1068 441.1 1069.1 442.4 1070.6 443.4 1071.4 443.4 1072.6 443.2 1073.5 442.5 1073.5 442.5 1073.9 442.1 1074.3 441.7L1080.9 424.1 1089.8 435C1090.5 435.8 1092.4 436.4 1093.7 435.4 1095 434.3 1094.8 432.3 1094.1 431.4L1083.2 418 1088.7 402.6 1110.3 429.1C1111.3 430.4 1113.3 430.2 1114.6 429.2S1116.1 426.5 1115 425.2L1091.4 396.1 1096.2 383.5 1130.2 378.2 1139.4 389.5 1126.4 423.2C1126.2 424.8 1126.9 426.4 1128.4 427.4 1129.2 427.5 1130.4 427.2 1131.2 426.5 1131.7 426.1 1132.1 425.8 1132.2 425L1143.7 394.7 1153.9 407.3 1148.4 422.7C1147.8 423.8 1148.5 425.5 1150 426.4 1151.5 426.6 1153.2 425.9 1153.7 424.8L1158.1 412.5 1169.5 426.4C1170.2 427.3 1172.5 427.5 1173.4 426.8 1174.7 425.8 1174.9 423.4 1174.2 422.5L1162.9 408.6 1175.4 407.1C1175.9 406.8 1176.3 406.4 1176.7 406.1 1177.6 405.4 1178.1 404.2 1178.2 403.4 1177.6 401.8 1176.1 400.8 1174.5 400.7L1158.7 403.4 1148.4 390.8 1180.4 385.7C1182.4 385.5 1183.4 384.1 1183.1 382.8 1182.9 380.8 1181.4 379.9 1179.8 379.7L1144.2 385.6 1135 374.3 1147 342.1 1160.4 339.9 1184.1 369C1185.2 370.3 1186.7 370.5 1188 369.4 1189.3 368.3 1189.5 366.8 1188.4 365.5L1166.9 339 1183 336.7 1194 350.1C1194.7 351 1197.1 351.2 1198.4 350.2 1199.7 349.1 1199.5 347.1 1198.8 346.2L1189.9 335.4 1208.5 332.5C1209 332.1 1209 332.1 1209.4 331.8 1210.3 331.1 1210.8 329.9 1210.9 329.2 1210.2 327.5 1208.8 326.5 1207.5 326.8ZM1130.8 369.1L1129.2 372.5 1126 373 1098.5 377.3 1095.2 377.8 1093.1 375.2 1075.8 353.9 1073.7 351.3 1074.8 348.2 1084.6 322.2 1085.7 319.1 1089.4 318.3 1116.5 314.3 1120.1 313.5 1122.3 316.1 1139.6 337.4 1141.7 340 1140.2 343.4 1130.8 369.1Z" fill="rgba(51, 121, 194, 0.58)" 
        class="Down" style="--snow-duration: 6.23s; --delayTime: 0.87s; --rotateDeg: 97deg"></path>
        <path d="M1229.1 123.5L1268.6 126.8 1275.9 135 1267.7 158.1 1256.7 160.3 1224.1 137.5C1223.6 137.3 1223.6 137.3 1223.2 137.2 1222.3 136.9 1221.2 137 1220.3 138.2 1219.8 139.6 1219.9 140.6 1221.1 141.6L1249.7 161.4 1232.8 164.5 1220.1 156C1220.1 156 1219.6 155.8 1219.6 155.8 1218.7 155.5 1217.7 155.6 1216.7 156.8 1216 157.5 1216.4 159.2 1217.6 160.2L1225.7 166.1 1213.2 168.3C1212.1 168.4 1211.2 169.6 1211.1 171.1S1212.9 173.3 1214.4 173.3L1226.5 171 1221 179.2C1220.1 180.4 1220.5 182.1 1221.7 183 1222.6 183.3 1224.1 183.4 1225 182.2L1233.6 169.4 1251 166.4 1231.2 195C1230.2 196.2 1230.7 197.9 1231.4 198.7 1232.8 199.2 1234.3 199.2 1235.2 198L1257.6 165.2 1269 163.1 1284.4 181.3 1280.6 192.2 1244.9 209.6C1243.6 210.2 1243.2 211.5 1243.7 212.7S1245.7 214.4 1246.9 213.9L1278.3 198.5 1272.4 215.3 1258.9 221.7C1257.7 222.3 1257.2 223.6 1257.6 225.3S1259.6 227 1260.8 226.4L1270.1 221.6 1265.8 233.8C1265.3 235.2 1266.4 236.6 1267.7 237 1269.1 237.5 1270.3 236.9 1270.8 235.6L1275.1 223.4 1279.5 232.6C1279.9 234.2 1281.3 234.7 1282.7 233.7 1283.9 233.1 1284.4 231.7 1283.8 230.5L1277.4 217 1283.3 200.3 1298 232C1298.6 233.2 1300.4 233.9 1301.6 233.3S1303.3 231.3 1302.8 230.1L1285.5 194 1289.4 183.1 1313.3 178.9 1320.4 187.5 1317.1 227.1C1317.1 228.6 1318.3 229.5 1319.6 230 1321.1 230 1322.1 228.8 1322.5 227.5L1325.2 192.7 1336.3 205.9 1335 221.2C1334.9 222.7 1336.1 223.6 1337.5 224.1 1338.6 224 1339.9 222.9 1340 221.4L1340.9 211.6 1349.2 221.1C1350 221.9 1351.5 221.9 1352.7 221.4 1353.7 220.2 1353.7 218.7 1352.9 217.9L1344.6 208.3 1355.1 209C1356.2 208.8 1357.5 207.8 1357.4 206.7 1357.9 205.4 1357.1 204.6 1355.8 204.1 1355.8 204.1 1355.3 204 1355.3 204L1340 202.6 1328.9 189.5 1363.6 192.1C1365.1 192.2 1366.4 191.6 1366.4 190 1366.4 188.5 1365.7 187.8 1364.8 187.4 1364.3 187.3 1364.3 187.3 1364.3 187.3L1324.1 184.2 1317 175.6 1325.2 152.5 1336 150.8 1369.3 173.3C1370 174 1371.7 173.6 1372.5 172.9 1373.4 171.7 1373 170 1371.8 169.1L1343.2 149.2 1360.1 146.1 1372.8 154.6C1374 155.6 1375.6 155.6 1376 154.3 1377 153.1 1376.5 151.4 1375.8 150.6L1367.1 145 1379.6 142.8C1380.8 142.2 1381.8 141 1381.8 139.5 1381.5 138.9 1380.7 138.1 1379.8 137.8 1379.4 137.6 1379.4 137.6 1378.8 137.9L1366.3 140.1 1371.9 131.4C1372.9 130.2 1372.3 129 1371.5 128.2 1371.1 128 1371.1 128 1370.6 127.9 1369.7 127.6 1368.7 127.7 1367.9 128.4L1359.3 141.2 1342.4 144.3 1362.2 115.7C1362.7 114.4 1362.7 112.9 1361.4 112.4 1361.1 111.8 1361.1 111.8 1360.6 111.6 1359.7 111.3 1358.5 111.9 1357.7 112.6L1335.2 145.9 1324.4 147.6 1308.5 129.3 1312.2 118.9 1348.4 101.6C1349.6 101.1 1350.2 99.3 1349.6 98S1347.2 96.2 1346 96.7L1314.6 112.1 1320.4 95.8 1334 88.9C1335.3 88.3 1335.7 87 1335.1 85.8 1334.6 84.5 1333.2 84 1332 84.6L1322.8 89 1327.1 76.8C1327.4 75.9 1327 74.2 1325.7 73.7 1324.3 73.2 1322.5 74.1 1322.1 75L1317.8 87.2 1313.4 78C1313.1 77.4 1312.9 76.8 1312.4 76.7 1311.5 76.3 1310.9 76.6 1310.3 76.9 1309 77.5 1308.6 78.9 1309.1 80.1L1315.4 94 1309.6 110.3 1294.9 78.6C1294.6 78 1294.2 77.8 1293.3 77.5 1292.8 77.3 1292.4 77.2 1291.7 77.5 1290.5 78.1 1289.9 79.9 1290.5 81.1L1307.2 117.1 1303.5 127.5 1280.1 131.9 1272.3 123.6 1275.8 83.5C1275.7 82.5 1275.1 81.3 1274.2 80.9 1273.8 80.8 1273.8 80.8 1273.6 81.2 1272.2 80.7 1270.9 81.8 1270.8 83.3L1268.2 118 1256.6 104.7 1258 89.4C1257.8 88.4 1257.1 87.6 1256.2 87.3 1256.2 87.3 1255.7 87.1 1255.7 87.1 1254.4 86.6 1253 87.7 1253 89.2L1252.3 99.6 1244 90.1C1243.7 89.5 1243.2 89.3 1242.8 89.1 1241.9 88.8 1240.8 88.9 1240.6 89.4 1239.3 90.4 1239.2 92 1239.8 93.2L1248.1 102.8 1238.3 101.8C1236.8 101.8 1235.4 102.8 1235.4 104.3 1235.5 105.4 1236.5 106.8 1237.6 106.6L1252.9 108 1264 121.1 1229.3 118.5C1227.8 118.5 1226.9 119.6 1226.4 121 1226.5 122.1 1227.5 123.5 1229.1 123.5ZM1273.7 157.1L1279.9 139.5 1280.9 136.8 1283.6 136.2 1301.6 132.9 1304.8 132.5 1306.6 134.7 1318.5 148.6 1320.2 150.7 1319.3 153.5 1313 171.1 1312 173.8 1309.3 174.4 1291.3 177.7 1288.6 178.2 1286.3 175.9 1274.5 162 1272.7 159.9 1273.7 157.1Z" fill="rgba(51, 121, 194, 0.58)" 
        class="Down" style="--snow-duration: 9.02s; --delayTime: 4.4s; --rotateDeg: 68deg"></path>
        <path d="M562.8 150.9L596.9 133.6 610.1 138.3 598.6 144.1C597.2 144.4 597 145.9 597.3 147.3 598 148.1 599.6 148.8 600.4 148.1L616.5 140.4 629.6 144.6 619.2 153.6 601.3 152.3C601.3 152.3 600.8 152.4 600.8 152.4 599.9 152.6 599.1 153.8 598.8 154.8 599.1 156.2 599.8 157.1 601.3 157.2L614.2 158 603.8 167 565.7 165C565.7 165 565.1 164.7 565.1 164.7 564.1 164.9 563.4 166 563.1 167 562.9 168.5 564.2 169.8 565.6 169.5L598.8 171.5 586.4 182.8 571.6 182C571.6 182 571.6 182 571.1 182 570.2 182.2 569.3 182.9 569 183.9 569.3 185.4 570.1 186.7 571.6 186.8L581.5 187.3 572.4 195.5C571.1 196.3 571.4 197.7 572 198.5 572.8 199.8 574.3 200 575.5 198.8L584.7 191 583.7 200.5C584 201.9 584.8 203.3 586.2 203 587.7 203.1 588.5 202.5 588.7 201L589.6 186.1 602 175.2 600.1 208.9C599.9 210 601.1 211.2 602.6 211.4 603.5 211.2 604.8 210.4 605 208.9L607 170.8 617.4 161.8 616.6 174.7C616.4 176.2 617.6 176.9 619.1 177.1 620.1 177.4 621.3 176.2 621.6 175.1L622.4 157.3 632.7 147.9 635.5 161.5 625.8 176.2C625 177.4 625.3 178.8 626.4 179.5 627.1 180.4 629 180 629.7 178.8L636.8 168.1 639.6 181.7 618.2 213.5C617.5 214.7 617.8 216.1 618.9 216.8 620 217.6 621.4 217.3 622.2 216.2L641 188.3 644.3 204.3 636 216.7C635.3 217.9 635.6 219.3 636.7 220 637.8 220.8 639.3 220.5 640 219.4L645.7 211.3 648.1 223.1C648.4 224.5 649.5 225.3 650.9 225 652.4 224.7 653.1 223.5 652.8 222.1L650.4 210.4 658.3 215.6C659.5 216.4 660.9 216.1 661.6 214.9S662.1 212.4 661 211.6L649.1 203.8 645.7 187.3 673.4 205.6C674.6 206.4 676 206.1 676.7 205 677.5 203.8 677.2 202.4 676.1 201.7L644.3 180.7 641.5 167.1 652.3 174.2C653.4 175 654.8 174.7 655.6 173.5 656.3 172.4 656.1 171 654.9 170.2L640.2 160.5 637.5 147.4 650.1 151.6 658.3 167.6C659 168.4 660.6 169.1 661.4 168.4 662.7 167.7 663 166.6 662.7 165.2L656.9 153.7 669.5 157.9 686.8 192.1C687.6 193.4 688.6 193.7 690.1 193.4 691.4 192.7 691.5 191.2 691.4 190.2L676.3 160 692.2 165.5 698.7 178.4C699 179.8 700.5 180 701.9 179.7 702.8 179.1 703.4 177.4 702.7 176.1L698.5 167.7 710 171.2C711.1 172 712.4 171.2 713.1 169.6 713.4 168.6 712.6 167.2 711.6 167L700 163 708.9 158.7C710.2 157.9 710.4 156.4 709.7 155.6 709.4 154.2 708.4 153.9 707.5 154.1 707 154.2 707 154.2 706.5 154.3L693.7 160.8 677.8 155.3 707.6 140.3C709 140 709.2 138.5 708.9 137.1 708.2 136.3 707.2 136 706.2 136.2 705.8 136.3 705.8 136.3 705.8 136.3L671 153.2 658.4 149 669.9 143.2C671.3 142.4 671.5 141.4 671.2 140 670.6 139.1 669.4 138.4 668.5 138.6 668 138.6 668 138.6 667.6 138.7L651.6 146.9 639 142.6 648.9 133.8 666.7 134.5C668.2 134.7 669.4 133.5 669.7 132.4 669.4 131 668.7 129.7 667.2 130L654.3 129.2 664.2 119.8 702.9 122.2C703.9 122.5 705.1 121.2 705.4 120.2 705.1 118.8 704.4 117.5 702.9 117.3L669.6 115.3 682.1 104.4 696.5 105.4C698 105.6 699.2 104.3 698.9 102.9 699.2 101.9 698.4 100.6 696.9 100.4L687.1 100 696.1 91.7C697 91.1 697.2 89.6 696.4 88.2 695.8 87.9 694.8 87.6 693.9 87.8 693.9 87.8 693.4 87.9 692.9 88L683.8 96.2 684.3 86.3C684.5 85.3 683.3 84.1 682.3 83.8 681.8 83.9 681.8 83.9 681.8 83.9 680.4 84.2 679.6 85.3 679.8 86.3L678.9 100.7 666.5 112 668.4 78.3C668.1 76.9 667.4 76 665.9 75.9 665.9 75.9 665.5 76 665.5 76 664.5 76.2 663.7 76.8 663.5 78.3L661.1 116.6 651.1 125.5 651.9 112.6C651.6 111.1 650.9 109.8 649.4 110.1 649.3 109.7 648.9 109.7 648.9 109.7 647.9 109.9 647.2 111.1 646.9 112.1L646.2 129.9 635.7 138.9 633 125.7 642.8 111C643.5 109.9 643.1 108 642 107.2 641 107 639.5 107.3 638.7 107.9L631.7 119.2 628.9 105.5 649.8 73.8C650.6 72.6 650.3 71.2 649.2 70.5 648 69.7 646.6 70 645.9 71.2L627.6 98.9 624.2 82.5 632 70.6C632.8 69.4 632.5 68 631.4 67.3S628.8 66.8 628.1 68L622.8 75.9 620.4 64.1C620.1 62.7 619 62 617.6 62.3 616.2 62.6 615.4 63.7 615.7 65.1L618.1 76.9 609.7 71.7C609.2 71.3 608.6 71 608.1 71.1 607.6 71.2 606.8 71.8 606.4 72.4 605.7 73.5 606 74.9 607.1 75.7L619.5 83.4 622.8 99.9 594.6 81.7C594 81.3 593.5 80.9 593 81 592.5 81.1 591.7 81.8 591.3 82.4 590.6 83.5 590.9 84.9 592 85.6L624.2 106.5 627 120.1 616.1 112.5C615.6 112.2 614.6 112.4 614.2 112.5 613.7 112.6 613.2 112.7 612.8 113.2 612.1 114.4 612.5 116.2 613.5 116.5L628.3 126.7 631 139.9 617.9 135.7 610.2 119.6C609.6 118.8 608.4 118 607.5 118.2 607 118.3 607 118.3 607.1 118.8 605.7 119.1 605.1 120.7 605.8 122L611.6 133.6 598.5 129.4 581.6 94.6C580.9 93.8 579.9 93.5 579 93.7 578.5 93.8 578.5 93.8 578.5 93.8 577.2 94.6 576.4 95.7 577.2 97L592.2 127.3 576.4 121.7 569.8 108.8C569 107.5 568 107.2 567.1 107.4 567.1 107.4 566.6 107.5 566.6 107.5 565.3 108.3 565.1 109.8 565.3 110.7L570 119.5 558.4 115.6C558 115.7 557.5 115.7 557 115.8 556.6 115.9 555.7 116.6 555.3 117.2 555.2 118.7 555.5 120.1 557 120.3L568.6 124.3 559.6 128.5C558.3 129.3 558.1 130.8 558.3 131.7 559.1 133.1 560.6 133.2 562 133L574.9 126.4 590.6 131.5 560.9 146.4C559.5 147.2 558.9 148.8 559.6 149.6 560.3 150.9 561.4 151.7 562.8 150.9Z" fill="rgba(51, 121, 194, 0.58)" 
        class="Down" style="--snow-duration: 10.87s; --delayTime: 3.39s; --rotateDeg: 25deg"></path>
        <path d="M78 464.6L106.1 482 108.4 490.9 93.6 504.9 84.6 502.4 69 473.1C68.8 472.8 68.8 472.8 68.5 472.5 67.9 471.9 67.1 471.6 65.9 472.2 65.1 473 64.8 473.8 65.3 475L79 500.5 65.3 496.5 59.1 485.3C59.1 485.3 58.8 485 58.8 485 58.3 484.4 57.4 484.1 56.3 484.6 55.4 484.9 55.1 486.3 55.6 487.5L59.4 494.9 49.3 491.8C48.4 491.5 47.3 492 46.7 493.2S47.2 495.4 48.3 496L58.1 498.8 51 502.9C49.8 503.4 49.5 504.8 50 506 50.6 506.6 51.7 507.2 52.8 506.6L64 500.4 78.1 504.8 52.5 518.5C51.4 519 51 520.4 51.3 521.3 52.1 522.2 53.2 522.8 54.4 522.2L83.4 506.3 92.7 509.1 97.2 528.5 90.3 535.1 57.2 534.5C56 534.4 55.2 535.3 55.1 536.4S55.9 538.4 57.1 538.4L86.2 538.9 75.4 549.1 63 548.8C61.9 548.7 61 549.6 60.7 551S61.5 553 62.6 553L71.4 553 63.5 560.4C62.7 561.2 62.9 562.6 63.7 563.5 64.6 564.4 65.7 564.4 66.6 563.6L74.4 556.2 74.2 564.6C73.9 566 74.7 566.9 76.1 566.7 77.2 566.7 78.1 565.9 78.1 564.7L78.5 552.3 89.2 542.1 88.1 571.2C88.1 572.4 89.2 573.5 90.3 573.6S92.3 572.8 92.4 571.6L93.3 538.3 100.3 531.7 119.6 537.6 121.6 546.7 104.2 574.8C103.6 575.9 104.1 577.1 104.9 577.9 106.1 578.5 107.2 578 108.1 577.2L123.2 552.4 126.5 566.3 119.7 577.2C119.1 578.3 119.6 579.5 120.4 580.3 121.3 580.6 122.7 580.4 123.3 579.3L127.7 572.3 130.3 582.6C130.5 583.4 131.7 584 132.8 584.1 133.9 583.5 134.5 582.4 134.3 581.6L131.7 571.3 139.2 575.7C140.1 576.1 141.5 575.8 141.8 575 142.7 574.1 142.4 573.3 141.6 572.4 141.6 572.4 141.3 572.1 141.3 572.1L130.5 565.3 127.2 551.4 151.9 566.5C153.1 567.1 154.2 567.1 154.8 566 155.4 564.9 155.1 564 154.6 563.4 154.3 563.1 154.3 563.1 154.3 563.1L125.6 545.7 123.6 536.6 138.4 522.5 147.1 525.3 163.3 554.6C163.6 555.5 165 555.8 165.8 555.5 167 555 167.3 553.6 166.7 552.4L153 526.9 166.8 530.9 173 542.1C173.5 543.3 174.6 543.9 175.5 543.1 176.6 542.5 177 541.1 176.7 540.3L172.4 532.8 182.5 535.9C183.6 535.9 184.8 535.4 185.4 534.3 185.4 533.7 185.1 532.9 184.6 532.3 184.3 532 184.3 532 183.7 532L173.6 528.9 181.1 524.5C182.2 524 182.3 522.9 182 522 181.7 521.7 181.7 521.7 181.5 521.4 180.9 520.9 180.1 520.6 179.2 520.8L168 527 154.3 523 179.8 509.2C180.7 508.4 181.3 507.3 180.5 506.4 180.5 505.8 180.5 505.8 180.2 505.6 179.6 505 178.5 504.9 177.7 505.2L148.4 521.4 139.7 518.6 134.8 498.9 141.5 492.6 174.9 493.5C176 493.6 177.2 492.5 177.2 491.3S176.1 489 175 489L145.9 488.5 156.3 478.6 169 478.7C170.2 478.7 171 477.9 171.1 476.7 171.1 475.6 170.3 474.7 169.1 474.7L160.7 474.5 168.5 467C169.1 466.5 169.4 465.1 168.6 464.2 167.8 463.3 166.1 463.3 165.5 463.8L157.6 471.3 157.9 462.8C157.9 462.2 157.9 461.7 157.6 461.4 157.1 460.8 156.5 460.8 155.9 460.8 154.8 460.7 153.9 461.6 153.9 462.7L153.3 475.4 142.8 485.3 143.9 456.2C143.9 455.6 143.6 455.3 143.1 454.7 142.8 454.5 142.5 454.2 142 454.2 140.8 454.1 139.7 455.2 139.7 456.4L138.5 489.4 131.8 495.8 112.7 490.1 110.1 481 127.9 452.6C128.2 451.8 128.2 450.7 127.7 450.1 127.4 449.8 127.4 449.8 127.1 450.1 126.3 449.2 124.8 449.4 124.3 450.6L109.1 475.3 105.6 461.1 112.4 450.2C112.7 449.4 112.4 448.5 111.9 448 111.9 448 111.6 447.7 111.6 447.7 110.8 446.8 109.4 447 108.8 448.2L104.3 455.7 101.8 445.4C101.8 444.9 101.5 444.6 101.2 444.3 100.7 443.7 99.8 443.4 99.5 443.7 98.1 443.9 97.5 445 97.5 446.2L100 456.4 93.1 452C92 451.4 90.6 451.6 90 452.7 89.6 453.6 89.9 455 90.7 455.3L101.6 462.1 104.9 476.1 80.1 461C79 460.4 77.8 460.9 77 461.7 76.7 462.6 76.9 464 78 464.6ZM98.4 506.4L109.7 495.7 111.5 494.1 113.7 494.7 128.3 499.1 130.8 500 131.3 502.2 134.9 517.1 135.4 519.3 133.7 521 122.3 531.7 120.6 533.4 118.3 532.7 103.7 528.4 101.5 527.7 100.7 525.2 97.2 510.4 96.7 508.1 98.4 506.4Z" fill="rgba(51, 121, 194, 0.58)" 
        class="Down" style="--snow-duration: 9.27s; --delayTime: 4.65s; --rotateDeg: 49deg"></path>
        <path d="M652.2 379.9L676.8 426.9 662.3 472 630.5 437 633.4 383.9C633.4 383.9 633.3 383.3 633.3 383.3 633 382.1 631.5 381.1 630.1 380.7 628.1 380.5 626.5 382.2 626.9 384L624.5 430.4 609 413.4 609.8 393C609.8 393 609.7 392.4 609.7 392.4 609.4 391.1 607.9 390.1 606.5 389.8 604.5 389.5 602.9 391.2 603.3 393.1L602.4 407 591.1 394.4C590.3 393.3 587.6 393.2 586.5 394.1 584.8 395.1 585.3 397.6 586.2 398.7L597.4 411.4 583.5 410.5C581.5 410.2 579.9 411.9 580.3 413.8 580.1 415.8 581.7 417.4 583.6 417L604.1 417.8 618.9 434.9 572.5 432.5C570.5 432.3 568.9 433.9 569.3 435.8 569.1 437.8 570.8 439.4 572.6 439L625.7 441.9 657.5 477 610.6 487.1 565.7 458.2C564.1 457.2 562.3 457.6 561.3 459.1 560.3 460.7 560.7 462.5 562.2 463.5L601.8 489 579.3 493.9 562.5 483.1C561 482.1 559.1 482.5 558.2 484 557.2 485.6 557.6 487.4 559.1 488.4L570.5 495.8 553 499.6C551 499.3 550.1 501.5 550.6 503.4 551 505.2 552.5 506.2 554.4 505.8L570.6 502.3 563.3 513.7C562.3 515.2 562.7 517.1 564.2 518.1S567.6 518.7 568.6 517.1L579.4 500.4 601.9 495.5 576.4 535.1C575.4 536.6 575.8 538.5 577.4 539.5 578.9 540.5 580.8 540.1 581.7 538.5L610.7 493.6 656.9 483.6 642.5 528.7 596.5 552.4C594.8 553.4 594.6 555.4 595 557.3 596 559 598 559.2 599.9 558.8L641.1 537.5 634 559.3 615.7 568.5C614 569.5 613.8 571.5 614.2 573.4 615.2 575.2 617.2 575.4 618.5 575.1L630.8 568.5 625.8 584.7C625.4 586 626 588.5 628 588.8 630 589 631.9 588.6 632.1 586.6L637.1 570.4 643.7 582.7C644.7 584.5 646.7 584.7 648 584.4 649.1 583.5 650.1 582 649.8 580.8 649.8 580.8 649.7 580.1 649.7 580.1L640.5 561.8 647.5 540 668.9 581.2C669.9 583 671.9 583.2 673.2 582.9 674.3 582 675.3 580.5 675 579.2 675 579.2 674.9 578.6 674.9 578.6L650.3 531.6 664.8 486.5 696.6 521.5 693.6 574.6C693.4 576.6 695.1 578.2 697 577.8 699 578 700.6 576.3 700.2 574.5L702.6 528.1 718 545 717.2 565.5C717 567.5 718.7 569.1 720.5 568.7 722.6 569 724.2 567.3 723.8 565.4L724.7 551.5 735.9 564.1C736.8 565.2 739.4 565.3 740.6 564.4 741.7 563.5 742 562.1 741.8 560.9 741.6 560.2 741.5 559.6 740.7 559.1L729.5 546.5 743.4 547.4C745.4 547.6 747.1 546 746.6 544.1 746.6 544.1 746.5 543.5 746.5 543.5 746.2 542.2 744.7 541.2 743.3 540.9L722.9 540.1 707.4 523.1 753.8 525.5C755.8 525.8 757.4 524.1 757 522.2 757 522.2 756.8 521.6 756.8 521.6 756.6 520.3 755 519.4 753.7 519L700.6 516.1 668.8 481 715.1 471 760 500C761.5 500.9 763.4 500.5 764.4 499 765.4 497.5 765 495.6 763.4 494.6L724.5 469 747 464.1 763.8 474.9C765.3 475.9 767.2 475.5 768.1 474S768.7 470.6 767.2 469.6L755.8 462.2 772 458.7C773.9 458.3 774.9 456.8 774.5 454.9 774.1 453 772.6 452.1 770.7 452.5L754.4 456 761.8 444.6C762.3 443.8 762.8 443 762.5 441.8S761.5 440.1 760.7 439.6C759.2 438.6 757.3 439 756.3 440.5L745.5 457.2 723 462.1 748.5 422.6C749 421.8 749.5 421 749.2 419.8 749.1 419.2 748.2 418 747.4 417.6 745.9 416.6 744 417 743 418.5L714.1 463.4 667.8 473.4 682.3 428.4 729.4 403.8C730.5 402.9 731.5 401.4 731.2 400.1 731.2 400.1 731.1 399.5 731.1 399.5 730 397.7 728 397.5 726.8 397.8L685.6 419.2 692.6 397.3 710.9 388.1C712 387.2 713 385.7 712.8 384.5 712.8 384.5 712.6 383.8 712.6 383.8 711.6 382.1 709.6 381.9 708.3 382.1L696 388.7 701 372.6C700.9 372 701.4 371.2 701.2 370.6 701 369.3 700.1 368.2 698.7 367.9 696.7 367.6 694.8 368 694.6 370.1L689.6 386.2 683 373.9C681.9 372.1 679.9 371.9 678.7 372.2 676.9 373.2 676.7 375.2 677 376.5L686.2 394.8 679.1 416.6 657.8 375.4C656.7 373.7 654.7 373.4 653.5 373.7 652 376 651.1 378.1 652.2 379.9Z" fill="rgba(51, 121, 194, 0.58)" 
        class="Down" style="--snow-duration: 8.94s; --delayTime: 3.97s; --rotateDeg: 46deg"></path>
        <path d="M1084.6 219L1080.3 202.7 1090.2 205C1091.2 205.3 1092.6 204.6 1093.2 203.2 1093.2 201.9 1092.5 200.5 1091.2 200.5L1078.9 197.3 1075 184.8 1100.6 191.6C1101.9 191.6 1103.3 190.9 1103.6 189.9 1103.9 188.2 1103.2 186.8 1101.9 186.8L1073.6 179.4 1068.3 160.1 1089.8 168.3 1081 147 1100.4 151.9 1108.6 180C1108.2 180.3 1108.6 180.7 1108.9 181 1109.6 181.7 1110.6 182 1111.6 181.6 1112.7 181.3 1113.3 179.9 1113.3 178.6L1105.9 153.2 1118.5 156.8 1122 169C1122 169.6 1122.4 170 1122.7 170.3 1123.1 170.6 1124.1 171 1125.1 170.6 1126.1 170.3 1126.8 168.9 1126.4 167.9L1123.9 158.1 1140.3 162C1141.6 162.6 1142.6 161.6 1143.3 160.2 1143.6 159.2 1142.9 157.8 1141.2 157.5L1125.2 153.3 1132.3 146.1C1133.3 145.1 1132.9 143.4 1132.2 142.7 1131.2 141.7 1129.9 141.7 1128.8 142.7L1119.8 152 1107.2 148.4 1125.3 129.9C1126.3 128.9 1126.3 127.5 1125.3 126.5 1124.6 125.8 1122.9 125.5 1121.9 126.5L1101.7 147.1 1082.3 142.3 1099.8 127.8 1077.4 124.7 1091.5 110.3 1119.4 117.4C1121.1 117.7 1122.1 116.7 1122.4 115.7 1122.7 114.6 1122.1 113.3 1120.7 112.6L1095.2 106.5 1104.2 97.2 1116.8 100.1C1118.2 100.8 1119.5 100.1 1119.8 98.4 1120.2 97.4 1119.5 96 1117.8 95.7L1108.2 93.1 1120 81.1C1121 80 1121 78.7 1119.9 77.7S1117.5 76.7 1116.5 77.7L1104.8 89.7 1102 80.3C1101.6 78.6 1100.3 77.9 1099.2 78.3 1097.5 78.6 1096.9 80 1097.6 81.3L1100.8 93.8 1091.7 103.1 1085 77.7C1084.3 76.4 1082.9 75.7 1081.9 76.1 1080.2 76.4 1079.5 77.8 1080.2 79.2L1088 106.9 1073.9 121.3 1070.3 99 1056.2 116.8 1050.9 97.5 1071 76.9C1072.1 75.9 1071.7 74.2 1071 73.5 1070 72.5 1068.6 72.5 1067.6 73.5L1049.2 92.4 1045.6 79.6 1054.7 70.3C1055.7 69.3 1055.7 67.9 1054.6 66.9 1054 66.2 1052.3 65.9 1051.2 66.9L1044.2 74.1 1039.6 58.2C1039.2 56.6 1037.9 55.9 1036.5 56.6 1035.5 56.9 1034.5 58 1035.2 59.3L1039.5 75.6 1029.6 73.3C1028.6 73 1027.2 73.7 1026.9 74.7 1026.6 75.7 1026.9 76.7 1027.3 77.1 1027.6 77.4 1028 77.7 1028.6 77.7L1040.9 81 1044.8 93.5 1019.2 86.7C1017.9 86.7 1016.5 87.4 1016.2 88.4 1015.9 89.4 1016.2 90.4 1016.9 91.1 1017.2 91.4 1017.2 91.4 1017.9 91.4L1046.2 98.9 1051.5 118.2 1030 110 1038.8 131.2 1019.4 126.4 1011.2 98.3C1010.9 97.3 1009.8 96.3 1008.1 96.6 1007.1 97 1006.5 98.3 1006.5 99.7L1013.9 125.1 1001.3 121.5 997.8 109.3C997.8 108 996.4 107.3 994.7 107.6 993.7 108 993 109.4 993 110.7L995.9 120.2 979.5 116.3C978.2 115.6 977.2 116.7 976.5 118 976.5 118.7 976.8 119.7 977.2 120.1 977.5 120.4 977.9 120.7 978.6 120.7L994.6 125 987.5 132.2C986.5 133.2 986.9 134.9 987.6 135.6L987.6 135.6C988.6 136.6 989.9 136.6 990.9 135.5L1000 126.3 1012.6 129.8 994.5 148.4C993.5 149.4 993.5 150.8 994.5 151.8S996.9 152.8 997.9 151.7L1018.1 131.1 1037.5 136 1020 150.5 1042.4 153.6 1028.3 168 1000.4 160.9C998.7 160.6 997.7 161.6 997.4 162.6 997 163.6 997.7 165 999.1 165.6L1024.3 172.1 1015.6 181.1 1003 178.2C1001.6 177.5 1000.3 178.2 1000 179.9 999.6 180.9 1000.3 182.3 1001.7 182.9L1011.6 185.2 999.8 197.2C998.8 198.2 998.8 199.6 999.9 200.6S1002.2 201.6 1003.3 200.6L1015 188.5 1017.8 198C1017.8 198.7 1018.2 199 1018.5 199.4 1019.2 200 1019.9 200 1020.6 200 1022.2 199.7 1022.9 198.3 1022.2 196.9L1019 184.4 1028.1 175.1 1034.8 200.5C1035.2 200.9 1035.5 201.2 1035.8 201.5 1036.5 202.2 1037.2 202.2 1037.9 202.2 1039.6 201.8 1040.2 200.5 1039.6 199.1L1031.8 171.4 1045.8 156.9 1049.5 179.3 1063.6 161.5 1068.9 180.8 1048.7 201.4C1047.7 202.4 1048.1 204.1 1048.8 204.8 1049.8 205.8 1051.2 205.8 1052.2 204.7L1070.3 186.2 1074.2 198.7 1065.1 208C1064.1 209 1064.1 210.4 1065.2 211.4S1067.5 212.4 1068.5 211.3L1075.6 204.1 1080.2 220C1080.2 220.7 1080.5 221 1080.9 221.4 1081.2 221.7 1082.3 222 1083.3 221.7 1084.3 221.3 1085.3 220.3 1084.6 219ZM1052.4 168.1L1049.5 149.8 1031.1 147.3 1045.6 135.2 1038.6 118.3 1056 124.6 1067.4 110.2 1070.3 128.5 1088.7 131 1074.5 142.7 1081.2 159.9 1064.1 153.3 1052.4 168.1Z" fill="rgba(51, 121, 194, 0.58)" 
        class="Down" style="--snow-duration: 8.81s; --delayTime: 4.59s; --rotateDeg: 64deg"></path>
        <path d="M734.1 196.8L702.2 195.6 694.5 186.8 705.3 187.3C706.4 187.7 707.1 186.6 707.5 185.5 707.4 184.6 706.5 183.5 705.6 183.6L690.8 182.7 682.9 174.4 694.1 172 706.7 180.2C706.7 180.2 707 180.3 707 180.3 707.8 180.6 708.8 180 709.4 179.4 709.8 178.2 709.7 177.4 708.6 176.6L699.6 170.8 710.8 168.5 737.7 185.4C737.7 185.4 738 185.9 738 185.9 738.8 186.2 739.8 185.6 740.4 185 741.1 184 740.7 182.6 739.6 182.2L716.2 167.3 729.8 164 740.3 170.7C740.3 170.7 740.3 170.7 740.7 170.8 741.4 171.1 742.3 170.9 742.9 170.3 743.3 169.1 743.3 167.9 742.3 167.1L735.2 162.8 745.2 160.5C746.5 160.5 746.8 159.3 746.7 158.5 746.7 157.2 745.6 156.4 744.3 156.8L734.4 158.8 739 152.2C739.4 151.1 739.3 149.8 738.2 149.5 737.2 148.7 736.3 148.9 735.6 149.9L728.9 160.4 715.4 163.2 730.5 139.5C731.1 138.8 730.7 137.4 729.7 136.7 728.9 136.5 727.6 136.5 726.9 137.5L710 164.5 698.7 166.8 704.5 157.7C705.3 156.7 704.8 155.7 703.7 154.9 703.1 154.3 701.7 154.7 701.1 155.4L693.3 168 682 170.7 685.5 159.6 698.5 152.9C699.5 152.3 699.9 151.2 699.4 150.2 699.2 149.3 697.7 148.8 696.7 149.3L687.2 154.3 690.7 143.2 719.2 128.8C720.2 128.2 720.5 127.1 720 126.1 719.5 125.1 718.3 124.7 717.3 125.2L692.4 137.9 696.5 124.9 707.5 119.2C708.5 118.7 708.9 117.5 708.3 116.5 707.8 115.5 706.7 115.2 705.7 115.7L698.3 119.2 701.3 109.7C701.6 108.5 701.1 107.5 700 107.2 698.8 106.8 697.8 107.3 697.5 108.5L694.5 118 690.8 111C690.3 110 689.1 109.6 688.1 110.1S686.8 111.8 687.3 112.8L692.8 123.3 688.5 136.7 675.8 112.1C675.2 111.1 674.1 110.7 673.1 111.2 672.1 111.8 671.7 112.9 672.3 113.9L686.9 142 683.4 153.1 678.4 143.6C677.9 142.6 676.7 142.2 675.7 142.7 674.7 143.2 674.4 144.4 674.9 145.4L681.7 158.4 678.3 169.1 670.8 160.9 671.4 145.9C671.2 145.1 670.3 143.9 669.4 144.1 668.2 144.1 667.5 144.7 667.2 145.9L666.7 156.6 659.2 148.4 660.5 116.5C660.5 115.2 659.9 114.6 658.7 114.3 657.5 114.3 656.7 115.3 656.5 116.1L655.1 144.2 645.9 133.7 646.3 121.7C646.7 120.5 645.7 119.8 644.5 119.4 643.6 119.5 642.5 120.4 642.5 121.7L642.1 129.6 635.2 122.3C634.7 121.3 633.4 121.3 632.3 122.2 631.7 122.9 631.7 124.2 632.3 124.8L639.1 132.4 630.9 131.9C629.6 131.9 628.9 132.9 629 133.8 628.7 135 629.3 135.6 630.1 135.8 630.5 135.9 630.5 135.9 630.8 136.1L642.9 136.5 652.1 147 624.4 145.8C623.3 145.4 622.5 146.4 622.2 147.6 622.3 148.5 622.9 149.1 623.7 149.3 624.1 149.4 624.1 149.4 624.1 149.4L656.3 151.2 663.7 159.5 653 159C651.7 159 651.1 159.7 650.7 160.8 650.8 161.7 651.4 162.7 652.1 162.9 652.5 163.1 652.5 163.1 652.9 163.2L667.8 163.7 675.3 171.9 664.4 174.4 651.8 166.6C650.8 165.9 649.4 166.3 648.8 166.9 648.4 168 648.4 169.3 649.6 169.7L658.6 175.5 647.7 178.3 620.5 160.9C619.8 160.3 618.4 160.7 617.8 161.3 617.5 162.4 617.5 163.7 618.5 164.5L641.9 179.4 628.4 182.3 618.3 175.7C617.3 175 615.9 175.4 615.5 176.5 614.9 177.2 614.9 178.4 615.9 179.2L623 183.5 613 185.8C612.1 185.9 611.4 187 611.4 188.2 611.7 188.7 612.3 189.3 613.1 189.6 613.1 189.6 613.4 189.7 613.8 189.8L623.8 187.5 619.5 194.6C618.8 195.2 619.2 196.6 619.9 197.2 620.3 197.3 620.3 197.3 620.3 197.3 621.4 197.7 622.4 197.2 622.7 196.4L629.2 186.3 642.8 183.1 627.8 206.8C627.4 208 627.5 208.8 628.6 209.6 628.6 209.6 628.9 209.7 628.9 209.7 629.7 210 630.6 209.8 631.3 208.8L648.6 182 659.5 179.5 653.7 188.6C653.3 189.7 653.3 191 654.5 191.4 654.3 191.7 654.7 191.9 654.7 191.9 655.5 192.1 656.5 191.6 657.1 190.9L664.9 178.3 676.1 176 672.7 186.7 659.7 193.4C658.7 194 658.2 195.5 658.7 196.5 659.4 197.1 660.5 197.5 661.4 197.3L671 192 667.5 203.1 639.4 217.6C638.4 218.2 638.1 219.3 638.6 220.3 639.1 221.3 640.2 221.7 641.3 221.2L665.9 208.4 661.6 221.7 651.1 227.2C650.1 227.7 649.7 228.9 650.2 229.9S651.9 231.2 652.9 230.7L659.9 227.1 656.9 236.6C656.6 237.8 657.1 238.8 658.2 239.1 659.4 239.5 660.4 239 660.7 237.8L663.8 228.3 667.8 235.4C668 235.9 668.3 236.4 668.7 236.6 669.1 236.7 670 236.5 670.5 236.3 671.5 235.8 671.8 234.6 671.3 233.6L665.4 222.9 669.7 209.6 682.8 234.3C683.1 234.8 683.3 235.3 683.7 235.4 684.1 235.6 685 235.4 685.5 235.2 686.5 234.6 686.9 233.5 686.3 232.5L671.4 204.3 674.9 193.2 679.7 203.1C679.9 203.6 680.7 203.9 681.1 204 681.5 204.1 681.9 204.2 682.4 204 683.4 203.4 683.8 201.9 683.2 201.3L676.5 187.9 679.9 177.2 687.8 185.5 686.9 200.4C687 201.2 687.5 202.2 688.3 202.5 688.7 202.6 688.7 202.6 688.8 202.2 689.9 202.6 691.1 201.7 691 200.4L691.5 189.7 699.3 198 697.6 230.2C697.7 231.1 698.3 231.7 699.1 231.9 699.5 232 699.5 232 699.5 232 700.8 232 701.8 231.5 701.7 230.2L703.1 202.1 712.3 212.6 711.9 224.6C711.9 225.9 712.6 226.5 713.3 226.8 713.3 226.8 713.7 226.9 713.7 226.9 715 226.9 715.7 225.8 716 225.1L716.1 216.7 722.9 224.3C723.3 224.5 723.7 224.6 724 224.7 724.4 224.8 725.3 224.7 725.8 224.4 726.6 223.4 726.9 222.3 725.9 221.5L719.1 213.9 727.3 214.4C728.6 214.4 729.3 213.4 729.6 212.6 729.5 211.3 728.5 210.6 727.4 210.2L715.3 209.8 705.9 199.7 733.7 200.9C734.9 200.9 736.1 200 735.9 199.1 735.9 197.8 735.4 196.8 734.1 196.8Z" fill="rgba(51, 121, 194, 0.58)" 
        class="Down" style="--snow-duration: 8.45s; --delayTime: 6.97s; --rotateDeg: 98deg"></path>
        
        <path d="M170.9 305.9L169.4 292 177.2 295.1C178 295.5 179.2 295.1 180 294 180.1 292.9 179.7 291.7 178.6 291.6L168.9 287.4 167.3 276.6 187.5 285.4C188.6 285.5 189.8 285.1 190.2 284.3 190.6 283 190.2 281.8 189.1 281.6L166.8 271.9 164.8 255.4 181.5 264.8 176.9 246.2 192.3 252.6 195.5 276.8C195.2 277 195.4 277.3 195.7 277.7 196.1 278.3 197 278.7 197.8 278.5 198.7 278.4 199.4 277.3 199.6 276.2L196.6 254.4 206.6 258.9 208 269.4C207.9 269.9 208.1 270.3 208.4 270.6 208.6 270.9 209.4 271.3 210.3 271.1 211.2 271 211.9 269.9 211.7 269L210.9 260.7 223.9 265.9C224.9 266.6 225.9 265.9 226.6 264.8 227 264 226.6 262.8 225.2 262.4L212.6 256.9 219.3 251.8C220.2 251.1 220.1 249.7 219.6 249 218.9 248.1 217.8 247.9 216.8 248.6L208.2 255.1 198.3 250.6 215.5 237.6C216.5 236.9 216.6 235.8 215.9 234.8 215.4 234.2 214.1 233.7 213.1 234.4L194 248.9 178.6 242.4 194.8 232.7 176.7 227.3 190.1 217.2 212.2 226.6C213.6 227 214.5 226.3 214.9 225.5 215.3 224.7 214.9 223.5 213.9 222.8L193.6 214.6 202.2 208 212.2 212C213.3 212.7 214.5 212.3 215 211 215.4 210.2 214.9 209 213.6 208.5L206.1 205.1 217.2 196.7C218.2 196 218.3 194.9 217.6 193.9S215.8 192.8 214.8 193.5L203.6 202 202.5 193.8C202.4 192.4 201.4 191.6 200.5 191.8 199 191.9 198.3 192.9 198.7 194.1L199.8 204.8 191.2 211.4 188.8 189.6C188.4 188.4 187.4 187.7 186.5 187.9 185 187.9 184.3 189 184.7 190.2L187.7 214 174.3 224.1 174.1 205.3 160.3 218.2 158.3 201.6 177.4 187.2C178.4 186.4 178.3 185 177.8 184.4 177.1 183.4 176 183.3 175 184L157.5 197.2 156.1 186.2 164.8 179.7C165.7 179 165.9 177.8 165.2 176.9 164.7 176.3 163.3 175.8 162.4 176.5L155.7 181.6 153.8 167.9C153.8 166.4 152.7 165.7 151.5 166.1 150.6 166.3 149.7 167 150.1 168.2L151.6 182.1 143.7 179C142.9 178.6 141.7 179.1 141.3 179.9 140.9 180.7 141.1 181.5 141.3 181.9 141.6 182.2 141.8 182.5 142.4 182.6L152.1 186.8 153.7 197.6 133.5 188.8C132.4 188.6 131.2 189 130.8 189.8 130.4 190.6 130.6 191.5 131 192.1 131.3 192.4 131.3 192.4 131.8 192.5L154.2 202.2 156.2 218.8 139.5 209.3 144.1 227.9 128.7 221.5 125.5 197.3C125.3 196.5 124.6 195.5 123.1 195.6 122.3 195.8 121.5 196.8 121.4 197.9L124.3 219.8 114.4 215.2 113 204.8C113.2 203.6 112.1 202.9 110.7 203 109.8 203.2 109.1 204.2 108.9 205.3L110.1 213.5 97.1 208.2C96.1 207.5 95.1 208.3 94.4 209.3 94.3 209.9 94.5 210.7 94.7 211.1 95 211.4 95.2 211.7 95.8 211.8L108.4 217.2 101.7 222.3C100.8 223 100.8 224.5 101.3 225.1L101.3 225.1C102 226.1 103.2 226.2 104.1 225.5L112.7 219 122.7 223.5 105.4 236.5C104.5 237.3 104.3 238.4 105.1 239.3S106.9 240.5 107.9 239.7L127 225.3 142.4 231.7 126.2 241.4 144.3 246.8 130.9 256.9 108.8 247.6C107.4 247.1 106.4 247.8 106 248.6 105.6 249.4 106.1 250.6 107.1 251.3L127 259.8 118.7 266.1 108.7 262.1C107.7 261.4 106.5 261.8 106 263.2 105.6 264 106 265.2 107.1 265.9L114.9 269 103.7 277.4C102.8 278.1 102.6 279.3 103.4 280.2S105.2 281.3 106.2 280.6L117.3 272.2 118.5 280.3C118.4 280.9 118.6 281.2 118.9 281.5 119.4 282.2 119.9 282.2 120.5 282.3 121.9 282.2 122.6 281.2 122.2 280L121.2 269.3 129.8 262.8 132.2 284.5C132.4 284.8 132.7 285.2 132.9 285.5 133.4 286.1 133.9 286.2 134.5 286.3 135.9 286.2 136.7 285.1 136.2 284L133.3 260.1 146.7 250 146.9 268.9 160.7 255.9 162.7 272.5 143.5 287C142.6 287.7 142.7 289.1 143.1 289.8 143.9 290.7 145 290.9 146 290.2L163.2 277.1 164.8 287.9 156.2 294.4C155.2 295.2 155.1 296.3 155.8 297.2S157.7 298.4 158.6 297.6L165.3 292.6 167.1 306.2C167 306.8 167.3 307.1 167.5 307.4 167.8 307.8 168.6 308.2 169.5 308 170.3 307.8 171.3 307.1 170.9 305.9ZM150.7 260L150.6 244.5 135.8 240.2 149.2 232.1 145.5 217.3 159.1 224.6 170.2 214.2 170.4 229.6 185.2 233.9 172.1 241.8 175.4 256.9 162.2 249.3 150.7 260Z" fill="rgba(51, 121, 194, 0.58)" 
        class="Down" style="--snow-duration: 9.21s; --delayTime: 3.01s; --rotateDeg: 68deg"></path>
        <path d="M819.9 277.2L833.4 287.3 824.3 291.7C823.3 292 822.7 293.4 823 294.9 823.9 296 825.2 296.6 826.3 295.7L837.9 290.6 848.7 297.9 824.5 308.6C823.5 309.4 822.9 310.8 823.2 311.8 824.1 313.3 825.4 314 826.5 313.1L853.2 301.3 869.4 313 847.5 320 867.6 331.2 849.4 339.5 825.5 322.7C825.6 322.2 825.1 322.1 824.6 322.1 823.7 322 822.7 322.4 822.1 323.3 821.5 324.2 821.9 325.7 822.7 326.7L844.4 341.9 832.3 347 821.9 339.7C821.5 339.1 821 339.1 820.5 339 820.1 339 819.1 339.4 818.5 340.3 817.9 341.2 818.2 342.7 819.2 343.2L827.2 349.4 812 356.5C810.6 356.9 810.4 358.3 810.8 359.8 811.1 360.8 812.5 361.4 814.1 360.6L829.2 353.9 828.2 363.9C828.1 365.4 829.4 366.4 830.3 366.5 831.8 366.7 832.8 365.8 833 364.4L834.3 351.5 846.3 346.4 843.8 372.2C843.6 373.7 844.5 374.7 845.9 374.8 846.9 374.9 848.4 374.1 848.5 372.7L851.4 344 869.6 335.7 865 357.9 884.4 346.4 882.5 366.4 856.2 378.3C854.7 379.1 854.5 380.5 854.9 381.5 855.3 382.5 856.7 383.2 858.2 382.8L881.9 371.7 880.6 384.6 869 390.2C867.5 390.5 866.9 391.9 867.7 393.4 868.1 394.4 869.5 395 871 394.2L880.1 390.3 878.4 407C878.3 408.5 879.1 409.5 880.6 409.6S883 408.9 883.2 407.5L884.9 390.8 893 396.4C894.3 397.5 895.8 397.2 896.4 396.3 897.5 394.9 897.1 393.4 895.7 392.8L885.4 385 886.7 372.1 907.8 387.8C909.2 388.4 910.7 388 911.3 387.1 912.4 385.8 912 384.3 910.6 383.7L887.2 366.9 889.2 346.8 906 362 905.9 339.3 922.1 351.1 919.2 379.7C919.1 381.2 920.4 382.3 921.4 382.4 922.8 382.5 923.9 381.6 924 380.2L926.6 353.9 937.4 361.8 936.1 374.7C936 376.1 936.9 377.1 938.3 377.3 939.2 377.4 940.8 376.6 940.9 375.1L941.9 365.1 955.4 374.6C956.8 375.7 958.3 375.4 958.9 374 959.4 373.1 959.6 371.7 958.2 371.1L944.7 361 953.9 356.6C954.9 356.3 955.5 354.9 955.1 353.9 954.7 352.9 953.8 352.3 953.3 352.2 952.8 352.2 952.4 352.1 951.8 352.6L940.2 357.7 929.4 350.3 953.6 339.7C954.7 338.9 955.3 337.5 954.9 336.5 954.5 335.5 953.6 334.9 952.6 334.8 952.2 334.8 952.2 334.8 951.6 335.2L924.9 347 908.7 335.3 930.6 328.3 910.5 317.1 928.7 308.8 952.6 325.6C953.5 326.2 954.9 326.4 956 325 956.6 324.1 956.3 322.6 955.4 321.6L933.8 306.4 945.8 301.3 956.2 308.6C957.1 309.7 958.6 309.4 959.7 308 960.2 307.1 959.9 305.6 959 304.6L950.9 298.9 966.1 291.8C967.6 291.4 967.7 290 967.4 288.5 966.9 288 966 287.4 965.6 287.4 965.1 287.3 964.6 287.3 964.1 287.7L948.9 294.4 949.9 284.4C950.1 282.9 948.7 281.8 947.8 281.8L947.8 281.8C946.4 281.6 945.3 282.5 945.2 283.9L943.9 296.8 931.8 301.9 934.4 276.1C934.5 274.6 933.7 273.6 932.2 273.4S929.7 274.2 929.6 275.6L926.7 304.3 908.5 312.6 913.2 290.4 893.7 301.9 895.7 281.9 921.9 270C923.5 269.2 923.6 267.8 923.2 266.8 922.9 265.8 921.5 265.1 920 265.5L896.3 276.1 897.5 263.7 909.1 258.1C910.6 257.8 911.2 256.4 910.4 254.9 910 253.9 908.7 253.3 907.2 253.6L898.1 258 899.7 241.3C899.9 239.8 899 238.8 897.6 238.6S895.1 239.4 894.9 240.8L893.3 257.5 885.2 251.9C884.7 251.4 884.3 251.3 883.8 251.3 882.8 251.2 882.3 251.6 881.8 252 880.7 253.4 881 254.8 882.4 255.5L892.7 263.2 891.4 276.1 870.3 260.5C869.8 260.5 869.4 260.4 868.9 260.4 867.9 260.3 867.4 260.7 866.9 261.2 865.8 262.5 866.1 264 867.5 264.6L890.9 281.4 888.9 301.5 872.1 286.3 872.2 309 856.1 297.2 858.9 268.6C859 267.1 857.7 266 856.8 265.9 855.3 265.8 854.3 266.7 854.1 268.1L851.6 293.9 840.7 286.5 842 273.6C842.1 272.2 841.3 271.2 839.8 271S837.4 271.7 837.2 273.2L836.2 283.2 822.7 273.7C822.3 273.1 821.8 273.1 821.3 273 820.8 273 819.8 273.4 819.3 274.3 818.7 275.2 818.5 276.6 819.9 277.2ZM876.8 296.9L890.5 309.3 906.4 299.8 902.7 318.3 918.7 327.1 901.2 333.1 901.3 351.4 887.6 339 871.7 348.5 875.4 330.5 859.5 321.2 876.9 315.7 876.8 296.9Z" fill="rgba(51, 121, 194, 0.58)" 
        class="Down" style="--snow-duration: 9.97s; --delayTime: 6.89s; --rotateDeg: 56deg"></path>
        <path d="M1373.8 190.2L1377.3 163.9 1396.3 149.7 1399.1 173.2 1382.6 194C1382.6 194 1382.5 194.3 1382.5 194.3 1382.2 194.9 1382.6 195.7 1383 196.3 1383.8 196.9 1384.9 196.7 1385.3 195.9L1399.7 177.6 1401.1 189 1394.8 197.1C1394.8 197.1 1394.7 197.4 1394.7 197.4 1394.5 198 1394.8 198.9 1395.3 199.4 1396 200.1 1397.2 199.9 1397.5 199L1401.9 193.6 1402.9 202C1402.9 202.7 1404 203.5 1404.7 203.4 1405.7 203.5 1406.2 202.3 1406.2 201.6L1405.2 193.2 1410.6 197.6C1411.4 198.3 1412.5 198.1 1412.9 197.2 1413.6 196.4 1413.4 195.3 1412.5 194.9L1404.4 188.7 1403.3 177.4 1421.5 191.8C1422.2 192.5 1423.4 192.3 1423.7 191.4 1424.4 190.6 1424.2 189.5 1423.3 189.1L1402.5 172.6 1399.7 149.1 1421.8 158.5 1431.7 183.3C1432 184.1 1432.9 184.5 1433.8 184.2 1434.6 183.8 1435 182.9 1434.6 182.1L1425.9 160.3 1436.5 164.8 1440.2 174C1440.5 174.9 1441.4 175.2 1442.2 174.9 1443.1 174.6 1443.5 173.7 1443.1 172.9L1440.6 166.6 1448.8 170.1C1449.6 170.7 1450.6 170.1 1450.9 169.2 1451.3 168.3 1451 167.5 1450.1 167.1L1442.4 163.9 1448.7 161.3C1449.6 161 1449.9 160.1 1449.6 159.3S1448.4 158.1 1447.6 158.4L1438.3 162.1 1427.7 157.6 1449.6 148.8C1450.4 148.5 1450.8 147.6 1450.4 146.7 1450.1 145.9 1449.2 145.5 1448.4 145.9L1423.6 155.8 1401.8 146.5 1420.7 132.3 1446.3 136C1447.3 136 1448 135.3 1448.4 134.4 1448.5 133.4 1447.7 132.7 1446.8 132.3L1423.8 129.1 1433 122.3 1443.2 123.8C1444.2 123.9 1444.8 123.1 1445.2 122.3 1445.3 121.2 1444.5 120.6 1444 120.3L1437 119.5 1443.7 114.3C1444.3 113.9 1444.8 112.7 1444 112 1443.3 111.3 1442.4 111 1441.7 111.7L1435 116.9 1435.9 109.9C1436 108.9 1435.2 108.2 1434.6 108 1433.9 108 1433.1 108.4 1432.8 109 1432.8 109 1432.7 109.3 1432.7 109.3L1431.1 119.4 1421.9 126.2 1425.1 103.3C1425.2 102.2 1424.5 101.6 1423.9 101.3 1423.2 101.4 1422.3 101.7 1422.1 102.3 1422.1 102.3 1421.9 102.6 1421.9 102.6L1418.4 128.9 1399.5 143.1 1396.6 119.6 1413.1 98.8C1413.8 98.1 1413.6 96.9 1412.7 96.6 1411.9 95.9 1410.8 96.1 1410.4 97L1396 115.2 1394.6 103.8 1400.9 95.7C1401.6 94.9 1401.3 93.8 1400.5 93.4 1399.7 92.8 1398.6 93 1398.2 93.9L1393.8 99.3 1392.9 90.9C1392.8 90.2 1391.8 89.4 1391 89.4 1390.3 89.5 1389.8 89.9 1389.5 90.5 1389.4 90.8 1389.3 91.1 1389.5 91.5L1390.4 99.9 1385 95.5C1384.2 94.8 1383.1 95.1 1382.7 95.9 1382.7 95.9 1382.6 96.2 1382.6 96.2 1382.3 96.8 1382.7 97.7 1383.1 98.2L1391.2 104.5 1392.6 115.8 1374.4 101.5C1373.7 100.8 1372.5 101 1372.2 101.9 1372.2 101.9 1372 102.2 1372 102.2 1371.8 102.8 1372.1 103.6 1372.6 104.1L1393.4 120.7 1396.2 144.1 1374.4 134.9 1364.5 110.1C1364.1 109.2 1363.3 108.9 1362.4 109.2 1361.6 109.5 1361.2 110.4 1361.5 111.3L1370 133 1359.4 128.5 1355.7 119.2C1355.4 118.4 1354.5 118 1353.7 118.3S1352.4 119.6 1352.8 120.4L1355.3 126.7 1347.7 123.4C1346.8 123.1 1345.9 123.4 1345.6 124.3 1345.2 125.2 1345.5 126 1346.4 126.4L1354.1 129.6 1347.8 132.2C1347.3 132.3 1346.9 132.5 1346.7 133.1S1346.6 134.1 1346.8 134.5C1347.1 135.4 1348 135.7 1348.8 135.4L1358 131.7 1368.6 136.2 1346.8 145C1346.4 145.2 1346 145.3 1345.7 145.9 1345.6 146.2 1345.6 146.9 1345.8 147.3 1346.1 148.2 1347 148.6 1347.9 148.2L1372.6 138.3 1394.4 147.6 1375.5 161.7 1349.2 158.2C1348.5 158.2 1347.6 158.6 1347.4 159.1 1347.4 159.1 1347.3 159.4 1347.3 159.4 1347.2 160.5 1347.9 161.1 1348.5 161.4L1371.5 164.6 1362.3 171.4 1352.2 169.9C1351.5 169.9 1350.6 170.3 1350.4 170.9 1350.4 170.9 1350.3 171.2 1350.3 171.2 1350.2 172.2 1350.9 172.8 1351.5 173.1L1358.5 174 1351.7 179.1C1351.6 179.4 1351.2 179.6 1351.1 179.9 1350.8 180.4 1350.9 181.2 1351.3 181.7 1352.1 182.4 1353 182.8 1353.6 182L1360.4 176.9 1359.5 183.8C1359.4 184.8 1360.2 185.5 1360.7 185.7 1361.8 185.8 1362.4 185 1362.7 184.5L1364.2 174.3 1373.4 167.5 1370.2 190.5C1370.1 191.5 1370.9 192.1 1371.5 192.4 1372.7 191.9 1373.7 191.2 1373.8 190.2Z" fill="rgba(51, 121, 194, 0.58)" 
        class="Down" style="--snow-duration: 8.97s; --delayTime: 4.46s; --rotateDeg: 40deg"></path>
        <path d="M1275.5 397.7L1284.1 449.9 1275.9 462 1243.4 459 1237 445.5 1255.8 395.8C1255.8 395.2 1255.8 395.2 1255.9 394.6 1256 393.3 1255.5 391.9 1253.7 391.1 1251.7 391 1250.4 391.5 1249.6 393.3L1233.3 436.8 1223.7 416 1230.6 396.7C1230.6 396.7 1230.7 396 1230.7 396 1230.8 394.8 1230.3 393.4 1228.4 392.6 1227.2 391.9 1225.2 393 1224.4 394.8L1219.4 407.2 1212.5 391.8C1211.9 390.4 1210.1 389.6 1208.1 390.1S1205.9 393.1 1206.4 395L1213.3 409.8 1200.9 405.5C1199 404.6 1197 405.7 1196.2 407.6 1196.1 408.9 1196.5 410.8 1198.4 411.6L1217.6 418.6 1227.2 440.1 1183.7 423.8C1181.9 423 1179.8 424 1179.1 425.3 1178.9 427.2 1179.4 429.1 1181.2 430L1230.9 448.1 1237.3 462.2 1218.8 488.1 1203.5 486.7 1169.4 446.2C1168.3 444.8 1166.3 444.6 1164.9 445.8S1163.4 448.9 1164.5 450.2L1194.6 485.9 1171 483.6 1158.3 468.3C1157.2 466.9 1155.3 466.7 1153.2 467.8S1151.7 470.9 1152.8 472.3L1162.1 482.8 1144.9 481.2C1143 481 1141.5 482.8 1141.4 484.7 1141.2 486.6 1142.3 488 1144.3 488.2L1161.5 489.8 1151 498.5C1149 499.6 1148.8 501.5 1150.6 502.9 1151.7 504.3 1153.6 504.5 1155 503.4L1170.4 490.7 1194 492.9 1157.8 522.3C1156.4 523.4 1156.1 526 1157.3 527.3S1160.3 528.9 1161.7 527.8L1202.9 493.7 1218.2 495.1 1231.5 524.7 1222.6 536.7 1170.4 545.3C1168.4 545.8 1167.6 547.6 1167.4 549.5 1167.9 551.5 1169.7 552.3 1171.6 552.5L1217.4 544.6 1204 563.2 1183.8 566.5C1181.8 566.9 1181 568.8 1180.8 570.7 1181.4 572 1183.2 573.5 1185.1 573L1198.2 571 1188.5 584.9C1187.8 586.1 1188.2 588.1 1189.4 589.5 1191.2 590.3 1193.2 589.9 1193.9 588.6L1203.6 574.8 1206.2 588.5C1206.7 589.8 1208.5 591.3 1209.8 590.8 1211.7 591 1212.5 589.7 1212.7 587.8 1212.7 587.8 1212.7 587.2 1212.7 587.2L1209.5 567 1222.8 548.3 1230.7 594C1231.2 596 1232.3 597.4 1234.3 596.9 1236.3 596.5 1237 595.3 1237.2 594 1237.2 593.4 1237.2 593.4 1237.2 593.4L1228 540.4 1236.9 528.4 1269.4 531.5 1275.2 544.9 1257 595.2C1256.2 596.4 1257.3 598.5 1258.5 599.2 1260.4 600 1262.4 598.9 1263.2 597.1L1279.5 553.6 1289.1 574.5 1282.2 593.7C1281.4 595.6 1281.8 597.6 1283.7 597.7 1285.6 598.5 1287.6 597.5 1288.4 596.2L1292.8 583.2 1299.7 598.6C1300.9 600 1302.7 600.8 1304.7 600.3 1305.4 599.8 1306.2 598.6 1306.3 597.3 1306.3 596.6 1306.3 596.6 1305.8 595.9L1298.8 580.5 1311.9 585C1313.8 585.8 1315.2 584.6 1315.9 583.4 1316 582.8 1316 582.8 1316.1 582.1 1316.2 580.9 1315.7 579.5 1314.4 578.8L1295.2 571.8 1285.6 551 1329 567.3C1330.9 567.5 1332.9 567 1333.1 565.1 1333.8 564.5 1333.8 564.5 1333.8 563.9 1334 562.6 1332.8 561.2 1331.6 560.4L1281.2 542.2 1275.4 528.8 1294 502.3 1308.6 503.7 1342.7 544.8C1343.9 546.2 1346.4 546.4 1347.8 545.3S1349.4 541.6 1348.3 540.2L1318.2 504.5 1341.1 506.7 1354.5 522.1C1355.6 523.5 1357.5 523.7 1358.9 522.5 1360.3 521.4 1360.5 519.5 1359.4 518.1L1350.7 507.6 1367.9 509.2C1369.2 509.3 1371.2 508.2 1371.4 506.3 1371.6 504.4 1369.8 502.3 1368.6 502.2L1351.4 500.6 1361.8 491.9C1362.5 491.4 1363.2 490.8 1363.3 490.1 1363.4 488.9 1362.8 488.2 1362.2 487.5 1361.1 486.1 1359.2 485.9 1357.8 487.1L1341.8 499.7 1318.9 497.5 1355.1 468.2C1355.7 467.6 1355.8 466.9 1355.9 465.7 1356 465 1356 464.4 1355.5 463.7 1354.3 462.3 1351.8 462.1 1350.4 463.2L1309.3 496.6 1294.6 495.3 1281.3 466.4 1289.6 453.6 1342.4 445.1C1343.8 444.6 1345.2 443.4 1345.3 442.2 1345.3 441.5 1345.3 441.5 1344.7 441.5 1344.9 439.6 1343.1 438.1 1341.1 438.6L1295.4 446.5 1308.8 427.2 1329 423.9C1330.3 423.4 1331.1 422.2 1331.2 420.9 1331.2 420.9 1331.3 420.3 1331.3 420.3 1331.4 418.4 1329.7 416.9 1327.7 417.4L1313.9 419.9 1323.6 406.1C1324.3 405.5 1324.4 404.8 1324.4 404.2 1324.5 402.9 1324 401.6 1323.4 401.5 1321.6 400.1 1319.6 400.5 1318.2 401.7L1308.6 415.6 1306.6 402.5C1306.1 400.6 1304.3 399.1 1302.4 399.6 1301 400.1 1299.6 401.9 1300.1 403.2L1303.3 423.4 1290 442.1 1282.1 396.4C1281.6 394.4 1279.8 393.6 1277.9 393.4 1276.5 393.9 1275.1 395.7 1275.5 397.7ZM1246.6 466.3L1271.4 468.7 1275.3 469 1276.9 472.4 1287 494.5 1288.6 498.5 1286.3 501.6 1272.3 521.4 1270 524.4 1266.2 524.1 1241.4 521.8 1237.6 521.4 1235.9 518 1225.8 495.9 1224.2 492.5 1226.5 488.9 1240.6 469 1242.8 466 1246.6 466.3Z" fill="rgba(51, 121, 194, 0.58)" 
        class="Down" style="--snow-duration: 10.46s; --delayTime: 3.59s; --rotateDeg: 36deg"></path>
        <path d="M316.3 480.6L341.4 472.1 348 475.1 349.2 491.4 343.1 495.7 317 490.5C316.7 490.5 316.7 490.5 316.4 490.5 315.8 490.6 315.1 490.9 314.9 491.9 315 492.9 315.3 493.5 316.3 493.7L339.1 498.2 329.6 504.7 319.5 502.8C319.5 502.8 319.2 502.8 319.2 502.8 318.5 502.9 317.9 503.2 317.7 504.2 317.4 504.9 318.1 505.8 319.1 506L325.6 507.5 318.6 512.2C317.9 512.5 317.7 513.5 318.1 514.5S319.7 515.3 320.7 514.9L327.4 510.3 326.3 516.8C326 517.7 326.7 518.7 327.7 518.9 328.3 518.9 329.3 518.5 329.5 517.5L331.4 507.4 341.2 501 336.7 523.7C336.4 524.7 337.1 525.6 337.8 525.9 338.8 525.8 339.7 525.4 339.9 524.5L344.9 498.5 351.3 494.2 365.6 501.2 366.1 508.8 348.9 529C348.3 529.7 348.4 530.6 349.1 531.2S350.7 531.7 351.3 531.1L366.4 513.3 367.3 525.1 360.7 532.6C360.1 533.3 360.2 534.3 360.9 535.2S362.5 535.7 363.1 535L367.6 529.6 368.2 538.2C368.2 539.2 369.2 539.7 370.2 539.7 371.2 539.6 371.8 538.9 371.7 538L371.1 529.3 376.2 533.8C376.9 534.7 377.9 534.6 378.4 533.6 379 533 379 532 378.3 531.4L370.8 524.9 369.9 513.1 387.4 528.5C388.1 529.1 389.3 529 389.9 528.4S390.5 526.7 389.8 526.1L369.6 508.6 369.1 500.9 382.6 492 389.2 495.4 397.7 520.4C398.1 521.4 399.1 521.6 400 521.5 401 521.2 401.2 520.2 401.2 519.2L393.5 497.3 403.8 502.4 407.1 512.1C407.5 513 408.5 513.3 409.4 513.2 410 512.8 410.6 511.8 410.2 510.9L408.2 504.6 415.8 508.3C416.5 508.5 417.4 508.1 418 507.5 418.2 506.5 417.9 505.5 417.2 505.3L409.6 501.6 416.1 499.3C416.7 498.9 417.3 497.9 417 497.3 416.9 496.3 416.2 496 415.3 496.1 415.3 496.1 415 496.1 415 496.1L405.2 499.4 394.9 494.3 416.9 486.7C417.8 486.3 418.4 485.6 418 484.7 417.6 483.8 417 483.5 416.3 483.5 416 483.5 416 483.5 416 483.5L390.6 492.4 384 489 382.8 472.7 389 468.8 415.3 473.6C416 473.9 416.9 473.2 417.2 472.6 417.4 471.6 416.7 470.7 415.7 470.4L392.9 465.9 402.4 459.5 412.5 461.3C413.5 461.6 414.4 461.2 414.4 460.2 414.6 459.3 413.9 458.3 413.3 458.1L406.4 456.9 413.5 452.3C414.1 451.6 414.3 450.6 413.9 449.7 413.6 449.4 412.9 449.1 412.3 449.2 412 449.2 412 449.2 411.7 449.5L404.6 454.2 405.8 447.4C406 446.4 405.3 445.8 404.7 445.5 404.4 445.5 404.4 445.5 404 445.6 403.4 445.6 402.8 446 402.5 446.6L400.6 456.7 391.2 463.1 395.7 440.4C395.6 439.4 395.2 438.5 394.2 438.6 393.9 438.3 393.9 438.3 393.6 438.3 392.9 438.3 392.4 439 392.1 439.7L387.2 466 381 469.9 366.4 463 365.9 455.6 383.4 435.5C384 434.8 383.9 433.5 383.3 432.9S381.3 432.4 380.7 433.1L365.6 450.8 364.8 439.3 371.3 431.5C371.9 430.8 371.8 429.9 371.1 429.3 370.5 428.7 369.5 428.7 368.9 429.4L364.5 434.5 363.8 425.9C363.8 425.3 363.1 424.4 362.1 424.4 361.2 424.5 360.3 425.5 360.3 426.2L360.9 434.8 355.8 430.3C355.5 430 355.1 429.7 354.8 429.8 354.2 429.8 353.9 430.1 353.6 430.5 353 431.2 353.1 432.1 353.7 432.7L361.3 439.6 362.1 451.1 344.6 435.6C344.3 435.3 344 435.3 343.3 435.4 343 435.4 342.7 435.4 342.4 435.8 341.8 436.4 341.9 437.7 342.6 438.3L362.4 455.9 362.9 463.2 349.8 472.1 342.8 469.1 334.3 443.7C333.9 443.1 333.3 442.5 332.6 442.5 332.3 442.6 332.3 442.6 332.3 442.9 331.4 442.9 330.8 444 331.2 444.9L338.8 466.8 328.2 461.8 324.9 452.1C324.6 451.4 323.9 451.2 323.3 451.2 323.3 451.2 323 451.2 323 451.2 322 451.3 321.4 452.3 321.8 453.2L324.2 459.8 316.6 456.2C316.2 455.9 315.9 455.9 315.6 455.9 314.9 456 314.3 456.3 314.4 456.6 313.8 457.7 314.2 458.6 314.8 459.2L322.5 462.8 316.2 464.9C315.3 465.2 314.7 466.2 315.1 467.2 315.5 467.8 316.5 468.4 317.1 468L326.8 464.8 337.1 469.8 315.2 477.4C314.2 477.8 314 478.8 314 479.8 314.4 480.4 315.4 481 316.3 480.6ZM352.6 489.3L351.7 476.8 351.6 474.9 353.1 473.8 363.2 467 365 465.9 366.7 466.8 377.7 472.1 379.3 473 379.5 474.9 380.3 487.3 380.5 489.2 378.9 490.3 368.8 497.1 367.3 498.2 365.3 497.4 354.4 492 352.7 491.2 352.6 489.3Z" fill="rgba(51, 121, 194, 0.58)" 
        class="Down" style="--snow-duration: 9.87s; --delayTime: 2.99s; --rotateDeg: 41deg"></path>
    </g>
    <defs>
        <mask id="SvgjsMask1018">
            <rect width="1440" height="560" fill="#ffffff"></rect>
        </mask>
        <filter id="SvgjsFilter1019">
            <feGaussianBlur stdDeviation="1"></feGaussianBlur>
        </filter>
        <style>
            @keyframes rain {
                0%{transform: translateY(-100vh) rotate(0)}
                100%{transform: translateY(100vh) rotate(var(--rotateDeg))}
            }
            .Down{
                transform: translateY(-100vh);
                animation: rain var(--snow-duration) infinite;
                animation-delay: var(--delayTime);
            }
        </style>
    </defs>
</svg>